<?xml version="1.0" encoding="utf-8"?>
<!-- Generator: Adobe Illustrator 24.2.1, SVG Export Plug-In . SVG Version: 6.00 Build 0)  -->
<svg version="1.1" id="Layer_1" xmlns="http://www.w3.org/2000/svg" xmlns:xlink="http://www.w3.org/1999/xlink" x="0px" y="0px"
	 viewBox="0 0 200 50" style="enable-background:new 0 0 200 50;" xml:space="preserve">
<style type="text/css">
	.st0{enable-background:new    ;}
</style>
<g class="st0">
	<path d="M-95.6,103.1v11.7H-96c0-1.3-0.2-2.6-0.7-3.8s-1.2-2.5-2.2-4c-0.5-0.8-1.1-1.4-1.6-1.9s-1-0.8-1.5-1.1
		c-0.5-0.3-0.9-0.4-1.4-0.5c-0.4-0.1-0.9-0.1-1.3-0.1v30.7h4.5v0.4H-119v-0.4h4.5v-30.6c-0.4,0-0.9,0-1.4,0.1s-1,0.2-1.6,0.5
		c-0.5,0.2-1.1,0.6-1.7,1c-0.6,0.5-1.1,1.1-1.6,1.8c-1,1.4-1.6,2.8-2,4c-0.3,1.2-0.4,2.5-0.4,3.8h-0.5v-11.6H-95.6z"/>
	<path d="M-67.7,121.6c0.8,1,1.7,2.2,2.7,3.6c0.9,1.4,1.9,2.8,2.8,4.2s1.7,2.5,2.5,3.5c0.7,1,1.3,1.4,1.7,1.4v0.3h-8
		c-1.6,0-3-0.4-4.1-1.3c-1.2-0.9-2.2-1.9-3.1-3.2c-0.9-1.3-1.8-2.7-2.6-4.1c-0.8-1.4-1.7-2.8-2.6-4.1c-1-1.4-1.6-2.3-1.9-2.9
		c-0.4-0.6-0.7-0.9-0.9-0.9v16.1h4.5v0.4h-18.9v-0.4h4.5v-30.8h-4.5v-0.3H-72c1.9,0.2,3.5,0.5,5,1.1c0.6,0.3,1.2,0.6,1.8,1
		c0.6,0.4,1.1,0.8,1.6,1.4c0.5,0.6,0.9,1.2,1.1,1.9c0.3,0.7,0.4,1.6,0.4,2.5c0,1.7-0.4,3-1.2,3.9c-0.8,0.9-1.7,1.7-2.8,2.1
		c-1.1,0.5-2.1,0.8-3.2,0.9c-0.9,0.1-1.8,0.2-2.3,0.2h-0.6H-78c1.4,0,2.8,0.2,4.1,0.4c1.1,0.2,2.3,0.6,3.4,1.1
		C-69.4,120.1-68.4,120.7-67.7,121.6z M-81.2,103.5v14.3h2.7c1.1,0,2.1-0.1,2.9-0.2c0.8-0.2,1.4-0.5,1.8-0.9c0.5-0.4,0.8-1,1-1.8
		c0.2-0.7,0.3-1.7,0.3-2.9v-1c0-1.6-0.4-3-1.1-4c-0.8-1-1.6-1.8-2.5-2.3c-1.1-0.6-2.2-1-3.6-1.3L-81.2,103.5L-81.2,103.5z"/>
	<path d="M-31,134.6c-1.7,0-3.1-0.2-4.2-0.7c-1.2-0.5-2.2-1.2-3-2.1c-0.9-0.9-1.6-2-2.2-3.3c-0.6-1.3-1.3-2.7-1.9-4.3h-9.9l-2.3,8.2
		c0,0.1,0,0.2,0,0.3c0,0.1,0,0.2,0,0.3c0,0.3,0.1,0.6,0.3,0.8c0.2,0.2,0.5,0.3,0.9,0.3h2.4v0.4h-9.4v-0.4h2.6c0.6,0,1.1-0.2,1.7-0.6
		c0.6-0.4,0.9-0.9,1.1-1.5l6.7-22.6c-0.3-0.6-0.7-1.2-1.1-1.9s-0.9-1.4-1.4-2s-1-1.1-1.6-1.5c-0.5-0.4-1.1-0.6-1.6-0.6v-0.3h8.1
		c1.1,0,2.1,0.2,2.9,0.6c0.9,0.4,1.6,0.9,2.2,1.5c0.6,0.6,1.2,1.3,1.6,2c0.5,0.8,0.8,1.5,1.1,2.1c0.4,1.1,0.9,2.3,1.5,3.6
		c0.5,1.3,1.1,2.6,1.7,4s1.2,2.8,1.8,4.2c0.6,1.4,1.2,2.8,1.7,4c1.3,3.1,2.6,6.2,4,9.4L-31,134.6L-31,134.6z M-52.1,123.9h9.6
		l-5.5-13.7L-52.1,123.9z"/>
	<path d="M1.8,103.1v0.4h-2c-0.6,0-1.2,0.2-1.7,0.7c-0.5,0.4-0.9,0.9-1,1.5l-6.9,29h-4.4c-0.4-0.7-0.9-1.7-1.5-3
		c-0.6-1.3-1.4-2.8-2.2-4.5c-0.8-1.7-1.7-3.5-2.6-5.4c-0.9-1.9-1.8-3.7-2.7-5.6c-0.9-1.8-1.8-3.5-2.6-5.1c-0.8-1.6-1.6-2.9-2.2-4
		c-0.5-0.9-1-1.5-1.5-2s-0.9-0.8-1.2-1.1c-0.4-0.3-0.8-0.4-1.1-0.4v-0.5h7.7c0.5,0,0.9,0,1.4,0.1c0.5,0,0.9,0.2,1.4,0.4
		c0.5,0.2,1,0.6,1.6,1s1.2,1.1,1.9,1.9c0.6,0.7,1.2,1.5,1.8,2.6c0.6,1.1,1.3,2.2,1.9,3.4c0.7,1.2,1.3,2.5,2,3.8
		c0.6,1.3,1.2,2.5,1.8,3.6c0.6,1.1,1.1,2.1,1.5,2.9c0.5,0.8,0.8,1.4,1.1,1.6l4.5-18.7c0-0.1,0-0.3,0-0.5c0-0.5-0.1-0.9-0.4-1.2
		c-0.3-0.3-0.7-0.4-1.2-0.4h-2.4v-0.5H1.8z"/>
	<path d="M27.4,130.4c0.6-0.8,1.1-1.6,1.4-2.3s0.6-1.4,0.7-2c0.1-0.6,0.2-1.2,0.2-1.8c0-0.6,0-1.1,0-1.7h0.4v12h-2.8h-7.5H16H5.8h-4
		v-0.4h4v-30.8h-4v-0.3h4h10.3h3.1h10.3v10.5h-0.4c0-0.7,0-1.3,0-1.8s-0.1-1.1-0.2-1.6c-0.1-0.5-0.3-1-0.6-1.6s-0.6-1.2-1.1-1.9
		c-0.5-0.8-1.1-1.4-1.7-1.8c-0.6-0.4-1.2-0.8-1.8-1c-0.6-0.2-1.3-0.3-2.1-0.4c-0.7,0-1.5-0.1-2.3-0.1h-3.1v14.8h1.9c0.5,0,1,0,1.5,0
		s0.9-0.1,1.3-0.2s0.8-0.3,1.1-0.6c0.3-0.3,0.7-0.6,1-1.1c0.5-0.7,0.9-1.5,1.2-2.2c0.3-0.7,0.4-1.6,0.4-2.5h0.3H25v13.9h-0.1h-0.3
		c0-0.9-0.1-1.7-0.4-2.4c-0.3-0.7-0.7-1.5-1.2-2.3c-0.6-0.9-1.3-1.4-2.1-1.7c-0.8-0.2-1.7-0.4-2.8-0.4h-1.9v15.7H20
		c0.8,0,1.6,0,2.2-0.1c0.6-0.1,1.2-0.2,1.8-0.4s1.1-0.6,1.7-1.1S26.8,131.4,27.4,130.4z"/>
	<path d="M59.1,130.1c0.6-0.8,1-1.7,1.4-2.6c0.3-0.9,0.6-1.8,0.7-2.6s0.2-1.6,0.3-2.4c0.1-0.8,0.1-1.4,0.1-1.9H62v14H48.5h-9.8h-4.5
		v-0.4h4.5v-30.8h-4.5v-0.3h4.5h14.4v0.4h-4.5v30.8h1.3c0.8,0,1.7-0.1,2.6-0.2c0.9-0.1,1.7-0.3,2.5-0.6c0.8-0.3,1.6-0.7,2.3-1.3
		C58,131.6,58.5,130.9,59.1,130.1z"/>
</g>
<g>
	<path d="M23.8,34.7c0.5-0.6,0.8-1.2,1.1-1.8c0.2-0.5,0.4-1.1,0.5-1.5c0.1-0.5,0.2-0.9,0.2-1.4c0-0.4,0-0.8,0-1.3h0.3v9h-2.1h-5.6
		h-2.9H7.5h-3v-0.3h3V14.3h-3V14h3h7.8h2.3h7.8v7.9h-0.3c0-0.5,0-1,0-1.4c0-0.4-0.1-0.8-0.2-1.2c-0.1-0.4-0.3-0.8-0.5-1.2
		c-0.2-0.4-0.5-0.9-0.9-1.4c-0.4-0.6-0.8-1.1-1.3-1.4c-0.4-0.3-0.9-0.6-1.4-0.7c-0.5-0.2-1-0.3-1.6-0.3c-0.6,0-1.1-0.1-1.8-0.1h-2.3
		v11.2h1.5c0.4,0,0.8,0,1.1,0c0.3,0,0.7-0.1,1-0.2c0.3-0.1,0.6-0.3,0.8-0.5c0.2-0.2,0.5-0.5,0.7-0.9c0.4-0.6,0.7-1.1,0.9-1.7
		c0.2-0.6,0.3-1.2,0.3-1.9h0.2H22v10.5h-0.1h-0.2c0-0.7-0.1-1.3-0.3-1.8c-0.2-0.6-0.5-1.1-0.9-1.7c-0.5-0.7-1-1.1-1.6-1.3
		c-0.6-0.2-1.3-0.3-2.1-0.3h-1.5v11.8h2.9c0.6,0,1.2,0,1.7-0.1s0.9-0.1,1.4-0.3c0.4-0.2,0.9-0.4,1.3-0.8
		C22.9,36,23.3,35.4,23.8,34.7z"/>
	<path d="M48.9,37.8c-1.2,0-2.3-0.2-3.2-0.6c-0.9-0.4-1.6-0.9-2.3-1.6c-0.6-0.7-1.2-1.5-1.7-2.5c-0.5-1-1-2-1.4-3.2h-7.5l-1.8,6.2
		c0,0.1,0,0.1,0,0.2c0,0.1,0,0.2,0,0.2c0,0.2,0.1,0.5,0.2,0.6c0.1,0.2,0.4,0.3,0.7,0.3h1.8v0.3h-7.1v-0.3h1.9c0.4,0,0.9-0.1,1.3-0.4
		c0.4-0.3,0.7-0.7,0.8-1.1l5.2-17.2c-0.2-0.4-0.5-0.9-0.9-1.4c-0.3-0.5-0.7-1-1.1-1.5c-0.4-0.5-0.8-0.8-1.2-1.1
		c-0.4-0.3-0.8-0.5-1.2-0.5V14h6.2c0.8,0,1.6,0.2,2.2,0.5c0.6,0.3,1.2,0.7,1.7,1.2c0.5,0.5,0.9,1,1.2,1.5c0.3,0.6,0.6,1.1,0.8,1.6
		c0.3,0.8,0.7,1.7,1.1,2.7c0.4,1,0.8,2,1.3,3c0.4,1.1,0.9,2.1,1.3,3.2c0.5,1.1,0.9,2.1,1.3,3.1c1,2.3,2,4.7,3,7.1H48.9z M33,29.7
		h7.3l-4.2-10.3L33,29.7z"/>
	<path d="M72.9,14v8.9h-0.3c0-1-0.2-2-0.5-2.9c-0.4-0.9-0.9-1.9-1.6-3c-0.4-0.6-0.8-1.1-1.2-1.4c-0.4-0.4-0.8-0.6-1.1-0.8
		c-0.4-0.2-0.7-0.3-1.1-0.4c-0.3-0.1-0.7-0.1-1-0.1v23.2h3.4v0.3H55.2v-0.3h3.4V14.3c-0.3,0-0.7,0-1.1,0.1c-0.4,0.1-0.8,0.2-1.2,0.4
		c-0.4,0.2-0.8,0.4-1.3,0.8c-0.4,0.3-0.8,0.8-1.2,1.4c-0.7,1.1-1.2,2.1-1.5,3c-0.3,0.9-0.4,1.9-0.4,2.9h-0.3V14H72.9z"/>
	<path d="M89.5,22.5c2.2,1.1,3.7,2.3,4.7,3.6c0.9,1.3,1.4,2.8,1.4,4.5c0,1.1-0.2,2.2-0.7,3.1c-0.5,0.9-1.1,1.7-1.9,2.4
		c-0.8,0.7-1.7,1.2-2.8,1.5c-1.1,0.4-2.2,0.5-3.4,0.5h-0.4c-1.1,0-2.2-0.2-3.2-0.6C82,37.1,81,36.6,79.9,36c-0.1,0-0.2-0.1-0.3-0.1
		c-0.2,0-0.5,0.1-0.7,0.3c-0.2,0.2-0.4,0.4-0.6,0.7c-0.2,0.3-0.5,0.6-0.7,1h-0.3l-0.6-9.7h0.3c0.1,0.4,0.2,0.9,0.3,1.4
		c0.1,0.4,0.3,0.9,0.5,1.5c0.2,0.5,0.5,1.1,0.8,1.7c0.4,0.7,0.8,1.3,1.3,2.1c0.5,0.7,1.1,1.3,1.8,1.7c1.1,0.6,2.2,1.1,3.3,1.3
		c0.3,0.1,0.7,0.1,1.1,0.1c0.5,0,0.9,0,1.4-0.1c0.5,0,0.9-0.1,1.3-0.3c0.5-0.2,1-0.5,1.2-0.9c0.3-0.3,0.4-0.9,0.4-1.7
		c0-0.6-0.2-1.1-0.7-1.7c-0.5-0.6-1.2-1.1-2-1.7c-0.8-0.6-1.7-1.2-2.8-1.8c-1-0.6-2.1-1.2-3.2-1.9c-1.8-1.1-3.2-2.3-4-3.7
		c-0.8-1.3-1.2-2.8-1.2-4.5c0-1.9,0.8-3.4,2.3-4.3c1.5-1,3.8-1.4,6.8-1.4c1,0,2,0.2,3.1,0.6c1,0.4,2,0.8,3.1,1.4
		c0.1,0,0.2,0.1,0.3,0.1c0.2,0,0.5-0.1,0.7-0.3c0.2-0.2,0.5-0.4,0.7-0.6c0.2-0.3,0.5-0.6,0.7-1h0.3l0.8,7.4h-0.3
		c-0.1-0.1-0.2-0.3-0.3-0.6c-0.1-0.2-0.3-0.5-0.5-0.9c-0.2-0.4-0.5-0.9-0.9-1.4c-0.1-0.1-0.2-0.3-0.4-0.5c-0.2-0.2-0.4-0.5-0.6-0.7
		c-0.2-0.2-0.5-0.5-0.7-0.7c-0.3-0.2-0.5-0.5-0.7-0.7c-0.7-0.4-1.5-0.8-2.4-1.1c-0.9-0.3-1.8-0.5-2.7-0.5c-0.3,0-0.6,0-1,0.1
		c-0.4,0.1-0.7,0.2-1,0.4c-0.3,0.2-0.6,0.5-0.8,0.8c-0.2,0.3-0.3,0.7-0.3,1.2c0,0.8,0.6,1.7,1.7,2.6C85.1,20.2,86.9,21.3,89.5,22.5z
		"/>
</g>
<g>
	<path d="M-103.5,162.8v0.3h-1.5c-0.5,0-0.9,0.2-1.3,0.5c-0.4,0.3-0.7,0.7-0.8,1.1l-5.2,21.9h-2.8c-0.3-0.5-0.7-1.2-1.2-2.2
		c-0.5-1-1-2.1-1.5-3.4c-0.6-1.3-1.1-2.6-1.8-4c-0.6-1.4-1.3-2.8-1.9-4.2l-3.9,13.8h-2.4c-0.3-0.5-0.7-1.3-1.2-2.3
		c-0.5-1-1-2.2-1.6-3.5c-0.6-1.3-1.2-2.7-1.9-4.1c-0.7-1.5-1.3-2.9-2-4.3c-0.7-1.4-1.3-2.7-2-3.9c-0.6-1.2-1.2-2.2-1.8-3
		c-0.4-0.6-0.8-1.1-1.1-1.4c-0.3-0.3-0.6-0.6-0.8-0.8c-0.2-0.2-0.5-0.3-0.6-0.3v-0.3h3.2c1.6,0,2.9,0.2,4.1,0.5c1.2,0.4,2.1,1,2.8,2
		c0.4,0.5,0.8,1.2,1.2,2c0.4,0.8,0.9,1.6,1.3,2.5c0.5,0.9,0.9,1.8,1.4,2.7c0.5,0.9,0.9,1.8,1.3,2.6c0.4,0.8,0.8,1.6,1.1,2.2
		c0.3,0.6,0.6,1.1,0.8,1.4l1.9-6.4c-0.7-1.4-1.3-2.7-1.9-3.8c-0.6-1.1-1.2-2.1-1.7-2.9c-0.4-0.7-0.8-1.2-1.2-1.5
		c-0.4-0.4-0.7-0.6-0.9-0.8c-0.3-0.2-0.6-0.3-0.8-0.3v-0.3h2.5c0.8,0,1.6,0,2.3,0.1c0.7,0,1.4,0.2,2,0.4c0.6,0.2,1.2,0.5,1.8,0.9
		c0.6,0.4,1.2,0.9,1.8,1.6c0.4,0.5,0.8,1.1,1.3,1.9c0.5,0.8,0.9,1.6,1.3,2.5c0.4,0.9,0.9,1.8,1.3,2.7c0.4,0.9,0.9,1.7,1.2,2.5
		c0.4,0.8,0.7,1.5,1.1,2c0.3,0.6,0.6,1,0.8,1.2l3.3-13.8c0-0.2,0.1-0.4,0.1-0.5c0-0.4-0.1-0.7-0.4-0.9c-0.3-0.2-0.5-0.3-0.9-0.3
		h-1.8v-0.3H-103.5z"/>
	<path d="M-84.1,183.5c0.5-0.6,0.8-1.2,1.1-1.8c0.2-0.5,0.4-1.1,0.5-1.5c0.1-0.5,0.2-0.9,0.2-1.4c0-0.4,0-0.8,0-1.3h0.3v9h-2.1h-5.6
		h-2.9h-7.8h-3v-0.3h3V163h-3v-0.3h3h7.8h2.3h7.8v7.9h-0.3c0-0.5,0-1,0-1.4c0-0.4-0.1-0.8-0.2-1.2c-0.1-0.4-0.3-0.8-0.5-1.2
		c-0.2-0.4-0.5-0.9-0.9-1.4c-0.4-0.6-0.8-1.1-1.3-1.4c-0.4-0.3-0.9-0.6-1.4-0.7c-0.5-0.2-1-0.3-1.6-0.3c-0.6,0-1.1-0.1-1.8-0.1h-2.3
		v11.2h1.5c0.4,0,0.8,0,1.1,0c0.3,0,0.7-0.1,1-0.2c0.3-0.1,0.6-0.3,0.8-0.5c0.2-0.2,0.5-0.5,0.7-0.9c0.4-0.6,0.7-1.1,0.9-1.7
		c0.2-0.6,0.3-1.2,0.3-1.9h0.2h0.1v10.5H-86h-0.2c0-0.7-0.1-1.3-0.3-1.8c-0.2-0.6-0.5-1.1-0.9-1.7c-0.5-0.7-1-1.1-1.6-1.3
		c-0.6-0.2-1.3-0.3-2.1-0.3h-1.5v11.8h2.9c0.6,0,1.2,0,1.7-0.1c0.5,0,0.9-0.1,1.4-0.3c0.4-0.2,0.9-0.4,1.3-0.8
		C-85.1,184.7-84.6,184.2-84.1,183.5z"/>
	<path d="M-59,186.6c-1.2,0-2.3-0.2-3.2-0.6c-0.9-0.4-1.6-0.9-2.3-1.6c-0.6-0.7-1.2-1.5-1.7-2.5c-0.5-1-1-2-1.4-3.2h-7.5l-1.8,6.2
		c0,0.1,0,0.1,0,0.2c0,0.1,0,0.2,0,0.2c0,0.2,0.1,0.5,0.2,0.6c0.1,0.2,0.4,0.3,0.7,0.3h1.8v0.3h-7.1v-0.3h1.9c0.4,0,0.9-0.1,1.3-0.4
		c0.4-0.3,0.7-0.7,0.8-1.1l5.2-17.2c-0.2-0.4-0.5-0.9-0.9-1.4c-0.3-0.5-0.7-1-1.1-1.5c-0.4-0.5-0.8-0.8-1.2-1.1
		c-0.4-0.3-0.8-0.5-1.2-0.5v-0.3h6.2c0.8,0,1.6,0.2,2.2,0.5c0.6,0.3,1.2,0.7,1.7,1.2c0.5,0.5,0.9,1,1.2,1.5c0.3,0.6,0.6,1.1,0.8,1.6
		c0.3,0.8,0.7,1.7,1.1,2.7c0.4,1,0.8,2,1.3,3c0.4,1.1,0.9,2.1,1.3,3.2c0.5,1.1,0.9,2.1,1.3,3.1c1,2.3,2,4.7,3,7.1H-59z M-75,178.5
		h7.3l-4.2-10.3L-75,178.5z"/>
	<path d="M-35,162.8v8.9h-0.3c0-1-0.2-2-0.5-2.9c-0.4-0.9-0.9-1.9-1.6-3c-0.4-0.6-0.8-1.1-1.2-1.4c-0.4-0.4-0.8-0.6-1.1-0.8
		c-0.4-0.2-0.7-0.3-1.1-0.4c-0.3-0.1-0.7-0.1-1-0.1v23.2h3.4v0.3h-14.3v-0.3h3.4v-23.2c-0.3,0-0.7,0-1.1,0.1
		c-0.4,0.1-0.8,0.2-1.2,0.4c-0.4,0.2-0.8,0.4-1.3,0.8c-0.4,0.3-0.8,0.8-1.2,1.4c-0.7,1.1-1.2,2.1-1.5,3c-0.3,0.9-0.4,1.9-0.4,2.9
		h-0.3v-8.8H-35z"/>
	<path d="M-7.8,186.6h-9.7v-0.3h2.1v-12h-7.4v12h2.1v0.3h-12.7v-0.3h3.1V163h-3.1v-0.3h12.7v0.3h-2.1v11h7.4v-11h-2.1v-0.3h9.7
		V186.6z M-4.7,162.8v0.3h-3.1v-0.3H-4.7z M-7.8,186.3h3.1v0.3h-3.1V186.3z"/>
	<path d="M17.1,183.5c0.5-0.6,0.8-1.2,1.1-1.8c0.2-0.5,0.4-1.1,0.5-1.5c0.1-0.5,0.2-0.9,0.2-1.4c0-0.4,0-0.8,0-1.3h0.3v9h-2.1h-5.6
		H8.6H0.7h-3v-0.3h3V163h-3v-0.3h3h7.8h2.3h7.8v7.9h-0.3c0-0.5,0-1,0-1.4c0-0.4-0.1-0.8-0.2-1.2c-0.1-0.4-0.3-0.8-0.5-1.2
		c-0.2-0.4-0.5-0.9-0.9-1.4c-0.4-0.6-0.8-1.1-1.3-1.4c-0.4-0.3-0.9-0.6-1.4-0.7c-0.5-0.2-1-0.3-1.6-0.3c-0.6,0-1.1-0.1-1.8-0.1H8.6
		v11.2H10c0.4,0,0.8,0,1.1,0c0.3,0,0.7-0.1,1-0.2c0.3-0.1,0.6-0.3,0.8-0.5c0.2-0.2,0.5-0.5,0.7-0.9c0.4-0.6,0.7-1.1,0.9-1.7
		c0.2-0.6,0.3-1.2,0.3-1.9h0.2h0.1v10.5h-0.1H15c0-0.7-0.1-1.3-0.3-1.8c-0.2-0.6-0.5-1.1-0.9-1.7c-0.5-0.7-1-1.1-1.6-1.3
		c-0.6-0.2-1.3-0.3-2.1-0.3H8.6v11.8h2.9c0.6,0,1.2,0,1.7-0.1c0.5,0,0.9-0.1,1.4-0.3c0.4-0.2,0.9-0.4,1.3-0.8
		C16.1,184.7,16.6,184.2,17.1,183.5z"/>
	<path d="M42.7,176.8c0.6,0.7,1.3,1.6,2,2.7c0.7,1.1,1.4,2.1,2.1,3.1c0.7,1,1.3,1.9,1.9,2.6c0.6,0.7,1,1.1,1.3,1.1v0.2h-6.1
		c-1.2,0-2.2-0.3-3.1-1c-0.9-0.6-1.7-1.5-2.4-2.4c-0.7-1-1.4-2-2-3.1c-0.6-1.1-1.3-2.1-1.9-3.1c-0.7-1-1.2-1.7-1.4-2.2
		c-0.2-0.4-0.4-0.6-0.6-0.7v12.2h3.4v0.3H21.6v-0.3H25V163h-3.4v-0.3h17.8c1.4,0.1,2.7,0.4,3.8,0.8c0.5,0.2,0.9,0.4,1.4,0.7
		c0.5,0.3,0.9,0.6,1.2,1.1c0.4,0.4,0.7,0.9,0.9,1.5c0.2,0.6,0.3,1.2,0.3,1.9c0,1.3-0.3,2.3-0.9,3c-0.6,0.7-1.3,1.2-2.1,1.6
		c-0.8,0.4-1.6,0.6-2.4,0.7c-0.8,0.1-1.4,0.1-1.8,0.1h-0.4l-4.4,0c1.1,0,2.1,0.1,3.1,0.3c0.9,0.2,1.7,0.4,2.6,0.8
		C41.5,175.6,42.2,176.1,42.7,176.8z M32.5,163.1v10.8h2.1c0.9,0,1.6-0.1,2.2-0.2c0.6-0.1,1-0.4,1.4-0.7c0.4-0.3,0.6-0.8,0.7-1.3
		c0.1-0.6,0.2-1.3,0.2-2.2v-0.7c0-1.2-0.3-2.3-0.9-3c-0.6-0.8-1.2-1.3-1.9-1.7c-0.8-0.5-1.7-0.8-2.7-1H32.5z"/>
</g>
<g>
	<path d="M112.7,143.1c2.2,1.1,3.7,2.3,4.7,3.6c0.9,1.3,1.4,2.8,1.4,4.5c0,1.1-0.2,2.2-0.7,3.1c-0.5,0.9-1.1,1.7-1.9,2.4
		c-0.8,0.7-1.7,1.2-2.8,1.5c-1.1,0.4-2.2,0.5-3.4,0.5h-0.4c-1.1,0-2.2-0.2-3.2-0.6c-1.1-0.4-2.1-0.9-3.2-1.5c-0.1,0-0.2-0.1-0.3-0.1
		c-0.2,0-0.5,0.1-0.7,0.3c-0.2,0.2-0.4,0.4-0.6,0.7c-0.2,0.3-0.5,0.6-0.7,1h-0.3l-0.6-9.7h0.3c0.1,0.4,0.2,0.9,0.3,1.4
		c0.1,0.4,0.3,0.9,0.5,1.5c0.2,0.5,0.5,1.1,0.8,1.7c0.4,0.7,0.8,1.3,1.3,2.1c0.5,0.7,1.1,1.3,1.8,1.7c1.1,0.6,2.2,1.1,3.3,1.3
		c0.3,0.1,0.7,0.1,1.1,0.1c0.5,0,0.9,0,1.4-0.1c0.5,0,0.9-0.1,1.3-0.3c0.5-0.2,1-0.5,1.2-0.9c0.3-0.3,0.4-0.9,0.4-1.7
		c0-0.6-0.2-1.1-0.7-1.7s-1.2-1.1-2-1.7c-0.8-0.6-1.7-1.2-2.8-1.8c-1-0.6-2.1-1.2-3.2-1.9c-1.8-1.1-3.2-2.3-4-3.7
		c-0.8-1.3-1.2-2.8-1.2-4.5c0-1.9,0.8-3.4,2.3-4.3c1.5-1,3.8-1.4,6.8-1.4c1,0,2,0.2,3.1,0.6c1,0.4,2,0.8,3.1,1.4
		c0.1,0,0.2,0.1,0.3,0.1c0.2,0,0.5-0.1,0.7-0.3c0.2-0.2,0.5-0.4,0.7-0.6c0.2-0.3,0.5-0.6,0.7-1h0.3l0.8,7.4h-0.3
		c-0.1-0.1-0.2-0.3-0.3-0.6c-0.1-0.2-0.3-0.5-0.5-0.9c-0.2-0.4-0.5-0.9-0.9-1.4c-0.1-0.1-0.2-0.3-0.4-0.5c-0.2-0.2-0.4-0.5-0.6-0.7
		c-0.2-0.2-0.5-0.5-0.7-0.7c-0.3-0.2-0.5-0.5-0.7-0.7c-0.7-0.4-1.5-0.8-2.4-1.1c-0.9-0.3-1.8-0.5-2.7-0.5c-0.3,0-0.6,0-1,0.1
		c-0.4,0.1-0.7,0.2-1,0.4c-0.3,0.2-0.6,0.5-0.8,0.8c-0.2,0.3-0.3,0.7-0.3,1.2c0,0.8,0.6,1.7,1.7,2.6
		C108.3,140.8,110.2,141.9,112.7,143.1z"/>
	<path d="M142.1,134.6v8.9h-0.3c0-1-0.2-2-0.5-2.9c-0.4-0.9-0.9-1.9-1.6-3c-0.4-0.6-0.8-1.1-1.2-1.4c-0.4-0.4-0.8-0.6-1.1-0.8
		c-0.4-0.2-0.7-0.3-1.1-0.4c-0.3-0.1-0.7-0.1-1-0.1v23.2h3.4v0.3h-14.3v-0.3h3.4v-23.2c-0.3,0-0.7,0-1.1,0.1
		c-0.4,0.1-0.8,0.2-1.2,0.4c-0.4,0.2-0.8,0.4-1.3,0.8c-0.4,0.3-0.8,0.8-1.2,1.4c-0.7,1.1-1.2,2.1-1.5,3c-0.3,0.9-0.4,1.9-0.4,2.9
		h-0.3v-8.8H142.1z"/>
	<path d="M162.7,158.5c-1.2,0-2.3-0.2-3.2-0.6c-0.9-0.4-1.6-0.9-2.3-1.6c-0.6-0.7-1.2-1.5-1.7-2.5c-0.5-1-1-2-1.4-3.2h-7.5l-1.8,6.2
		c0,0.1,0,0.1,0,0.2c0,0.1,0,0.2,0,0.2c0,0.2,0.1,0.5,0.2,0.6c0.1,0.2,0.4,0.3,0.7,0.3h1.8v0.3h-7.1v-0.3h1.9c0.4,0,0.9-0.1,1.3-0.4
		c0.4-0.3,0.7-0.7,0.8-1.1l5.2-17.2c-0.2-0.4-0.5-0.9-0.9-1.4c-0.3-0.5-0.7-1-1.1-1.5c-0.4-0.5-0.8-0.8-1.2-1.1
		c-0.4-0.3-0.8-0.5-1.2-0.5v-0.3h6.2c0.8,0,1.6,0.2,2.2,0.5c0.6,0.3,1.2,0.7,1.7,1.2c0.5,0.5,0.9,1,1.2,1.5c0.3,0.6,0.6,1.1,0.8,1.6
		c0.3,0.8,0.7,1.7,1.1,2.7c0.4,1,0.8,2,1.3,3c0.4,1.1,0.9,2.1,1.3,3.2c0.5,1.1,0.9,2.1,1.3,3.1c1,2.3,2,4.7,3,7.1H162.7z
		 M146.8,150.4h7.3l-4.2-10.3L146.8,150.4z"/>
	<path d="M191.2,134.6v0.3h-0.4c-0.2,0-0.4,0-0.7,0.1c-0.2,0-0.4,0.1-0.7,0.2c-0.3,0.1-0.5,0.1-0.8,0.3c-0.4,0.2-0.7,0.3-0.9,0.6
		c-0.2,0.2-0.4,0.4-0.6,0.6c-0.2,0.2-0.3,0.5-0.4,0.7l-4.3,10.2v10.7h3.4v0.3h-14.6v-0.3h3.4v-10.7l-7.7-12.5v-0.3h1.7
		c0.9,0,1.7,0,2.4,0.1c0.7,0.1,1.4,0.2,2.1,0.5c0.6,0.3,1.3,0.6,1.8,1.1c0.6,0.5,1.2,1.1,1.8,1.9l5.5,8.8l4.2-10
		c0.1-0.2,0.1-0.4,0.1-0.8c0-0.1,0-0.3,0-0.4c0-0.1-0.1-0.3-0.1-0.4c-0.1-0.2-0.2-0.3-0.3-0.4c-0.1-0.1-0.3-0.2-0.4-0.2
		c-0.2,0-0.3-0.1-0.5-0.1h-1.2v-0.3H191.2z"/>
	<path d="M204.8,143.1c2.2,1.1,3.7,2.3,4.7,3.6c0.9,1.3,1.4,2.8,1.4,4.5c0,1.1-0.2,2.2-0.7,3.1c-0.5,0.9-1.1,1.7-1.9,2.4
		c-0.8,0.7-1.7,1.2-2.8,1.5c-1.1,0.4-2.2,0.5-3.4,0.5h-0.4c-1.1,0-2.2-0.2-3.2-0.6c-1.1-0.4-2.1-0.9-3.2-1.5c-0.1,0-0.2-0.1-0.3-0.1
		c-0.2,0-0.5,0.1-0.7,0.3c-0.2,0.2-0.4,0.4-0.6,0.7c-0.2,0.3-0.5,0.6-0.7,1h-0.3l-0.6-9.7h0.3c0.1,0.4,0.2,0.9,0.3,1.4
		c0.1,0.4,0.3,0.9,0.5,1.5c0.2,0.5,0.5,1.1,0.8,1.7c0.4,0.7,0.8,1.3,1.3,2.1c0.5,0.7,1.1,1.3,1.8,1.7c1.1,0.6,2.2,1.1,3.3,1.3
		c0.3,0.1,0.7,0.1,1.1,0.1c0.5,0,0.9,0,1.4-0.1c0.5,0,0.9-0.1,1.3-0.3c0.5-0.2,1-0.5,1.2-0.9c0.3-0.3,0.4-0.9,0.4-1.7
		c0-0.6-0.2-1.1-0.7-1.7s-1.2-1.1-2-1.7c-0.8-0.6-1.7-1.2-2.8-1.8c-1-0.6-2.1-1.2-3.2-1.9c-1.8-1.1-3.2-2.3-4-3.7
		c-0.8-1.3-1.2-2.8-1.2-4.5c0-1.9,0.8-3.4,2.3-4.3c1.5-1,3.8-1.4,6.8-1.4c1,0,2,0.2,3.1,0.6c1,0.4,2,0.8,3.1,1.4
		c0.1,0,0.2,0.1,0.3,0.1c0.2,0,0.5-0.1,0.7-0.3c0.2-0.2,0.5-0.4,0.7-0.6c0.2-0.3,0.5-0.6,0.7-1h0.3l0.8,7.4H210
		c-0.1-0.1-0.2-0.3-0.3-0.6c-0.1-0.2-0.3-0.5-0.5-0.9c-0.2-0.4-0.5-0.9-0.9-1.4c-0.1-0.1-0.2-0.3-0.4-0.5c-0.2-0.2-0.4-0.5-0.6-0.7
		c-0.2-0.2-0.5-0.5-0.7-0.7c-0.3-0.2-0.5-0.5-0.7-0.7c-0.7-0.4-1.5-0.8-2.4-1.1c-0.9-0.3-1.8-0.5-2.7-0.5c-0.3,0-0.6,0-1,0.1
		c-0.4,0.1-0.7,0.2-1,0.4c-0.3,0.2-0.6,0.5-0.8,0.8c-0.2,0.3-0.3,0.7-0.3,1.2c0,0.8,0.6,1.7,1.7,2.6
		C200.4,140.8,202.3,141.9,204.8,143.1z"/>
</g>
</svg>
