<?xml version="1.0" encoding="utf-8"?>
<!-- Generator: Adobe Illustrator 24.2.1, SVG Export Plug-In . SVG Version: 6.00 Build 0)  -->
<svg version="1.1" id="Layer_1" xmlns="http://www.w3.org/2000/svg" xmlns:xlink="http://www.w3.org/1999/xlink" x="0px" y="0px"
	 viewBox="0 0 100 100" style="enable-background:new 0 0 100 100;" xml:space="preserve">
<g>
	<path d="M59.72,67.19c-0.86-0.82-1.59-1.47-2.28-2.15c-2.3-2.28-4.59-4.57-6.86-6.88c-0.44-0.45-0.72-0.49-1.27-0.14
		c-8.98,5.63-18.38,6.46-28.06,2.11C10.86,55.45,4.37,44.38,5.05,33c0.28-4.74,1.56-9.18,3.98-13.24C15.37,9.12,27,3.85,38.53,5.63
		c7.89,1.21,14.19,5.11,18.8,11.59c6.93,9.74,6.86,22.52,0.47,32.27c-0.39,0.59-0.41,0.91,0.12,1.43c2.87,2.8,5.68,5.65,8.52,8.48
		c0.11,0.11,0.24,0.22,0.42,0.39c0.3-0.29,0.6-0.57,0.89-0.86c0.99-0.99,1.49-1,2.46-0.03c4.28,4.28,8.56,8.57,12.85,12.85
		c2.35,2.35,4.72,4.7,7.06,7.07c1.17,1.19,2.42,2.33,3.4,3.67c2.42,3.32,1.8,7.97-1.28,10.69c-3.13,2.77-7.88,2.8-10.9-0.06
		c-2.84-2.69-5.56-5.51-8.33-8.28c-4.73-4.73-9.46-9.46-14.18-14.18c-0.15-0.15-0.3-0.29-0.44-0.45c-0.61-0.66-0.62-1.27,0-1.9
		C58.76,67.95,59.19,67.64,59.72,67.19z M55.88,32.46c-0.1-4.32-1.76-9.25-5.53-13.35c-6.51-7.1-16.4-9.17-25.27-5.2
		c-13.56,6.07-17.57,23.03-8.66,34.18c2.33,2.92,5.23,5.11,8.68,6.49c3.61,1.45,7.38,1.91,11.25,1.38
		C47.51,54.44,55.88,44.86,55.88,32.46z"/>
	<path d="M52.08,30.27c-0.15,0.66-0.45,1.07-1.05,1.21c-0.64,0.14-1.08-0.14-1.33-0.74c-0.76-1.81-1.72-3.5-2.98-5.02
		c-1.53-1.85-3.32-3.38-5.43-4.54c-5.06-2.77-10.33-3.17-15.8-1.36c-0.39,0.13-0.91,0.19-1.26,0.04c-0.84-0.36-0.8-1.45,0.04-2.03
		c2.13-1.5,4.48-2.49,7.04-2.93c4.9-0.83,9.43,0.16,13.44,3.11c2.83,2.08,4.99,4.74,6.12,8.12C51.34,27.49,51.69,28.89,52.08,30.27z
		"/>
</g>
</svg>
