<?xml version="1.0" encoding="utf-8"?>
<!-- Generator: Adobe Illustrator 24.2.1, SVG Export Plug-In . SVG Version: 6.00 Build 0)  -->
<svg version="1.1" id="Layer_1" xmlns="http://www.w3.org/2000/svg" xmlns:xlink="http://www.w3.org/1999/xlink" x="0px" y="0px"
	 viewBox="0 0 200 50" style="enable-background:new 0 0 200 50;" xml:space="preserve">
<style type="text/css">
	.st0{enable-background:new    ;}
</style>
<g class="st0">
	<path d="M35.6,9v11.7h-0.4c0-1.3-0.2-2.6-0.7-3.8c-0.5-1.2-1.2-2.5-2.2-4c-0.5-0.8-1.1-1.4-1.6-1.9c-0.5-0.5-1-0.8-1.5-1.1
		c-0.5-0.3-0.9-0.4-1.4-0.5c-0.4-0.1-0.9-0.1-1.3-0.1v30.7h4.5v0.4H12.2v-0.4h4.5V9.4c-0.4,0-0.9,0-1.4,0.1c-0.5,0.1-1,0.2-1.6,0.5
		c-0.5,0.2-1.1,0.6-1.7,1c-0.6,0.5-1.1,1.1-1.6,1.8c-1,1.4-1.6,2.8-2,4C8.1,18,8,19.3,8,20.6H7.5V9H35.6z"/>
	<path d="M63.5,27.5c0.8,1,1.7,2.2,2.7,3.6c0.9,1.4,1.9,2.8,2.8,4.2c0.9,1.4,1.7,2.5,2.5,3.5c0.7,1,1.3,1.4,1.7,1.4v0.3h-8
		c-1.6,0-3-0.4-4.1-1.3c-1.2-0.9-2.2-1.9-3.1-3.2c-0.9-1.3-1.8-2.7-2.6-4.1s-1.7-2.8-2.6-4.1c-1-1.4-1.6-2.3-1.9-2.9
		C50.5,24.3,50.2,24,50,24v16.1h4.5v0.4H35.6v-0.4h4.5V9.3h-4.5V9h23.6c1.9,0.2,3.5,0.5,5,1.1c0.6,0.3,1.2,0.6,1.8,1
		c0.6,0.4,1.1,0.8,1.6,1.4c0.5,0.6,0.9,1.2,1.1,1.9c0.3,0.7,0.4,1.6,0.4,2.5c0,1.7-0.4,3-1.2,3.9c-0.8,0.9-1.7,1.7-2.8,2.1
		c-1.1,0.5-2.1,0.8-3.2,0.9C61,23.9,60.1,24,59.6,24H59l-5.8,0c1.4,0,2.8,0.2,4.1,0.4c1.1,0.2,2.3,0.6,3.4,1.1S62.8,26.6,63.5,27.5z
		 M50,9.4v14.3h2.7c1.1,0,2.1-0.1,2.9-0.2c0.8-0.2,1.4-0.5,1.8-0.9c0.5-0.4,0.8-1,1-1.8c0.2-0.7,0.3-1.7,0.3-2.9v-1
		c0-1.6-0.4-3-1.1-4c-0.8-1-1.6-1.8-2.5-2.3c-1.1-0.6-2.2-1-3.6-1.3H50z"/>
	<path d="M100.2,40.5c-1.7,0-3.1-0.2-4.2-0.7c-1.2-0.5-2.2-1.2-3-2.1c-0.9-0.9-1.6-2-2.2-3.3c-0.6-1.3-1.3-2.7-1.9-4.3H79l-2.3,8.2
		c0,0.1,0,0.2,0,0.3c0,0.1,0,0.2,0,0.3c0,0.3,0.1,0.6,0.3,0.8c0.2,0.2,0.5,0.3,0.9,0.3h2.4v0.4h-9.4v-0.4h2.6c0.6,0,1.1-0.2,1.7-0.6
		c0.6-0.4,0.9-0.9,1.1-1.5L83,15.3c-0.3-0.6-0.7-1.2-1.1-1.9c-0.4-0.7-0.9-1.4-1.4-2c-0.5-0.6-1-1.1-1.6-1.5
		c-0.5-0.4-1.1-0.6-1.6-0.6V9h8.1c1.1,0,2.1,0.2,2.9,0.6c0.9,0.4,1.6,0.9,2.2,1.5c0.6,0.6,1.2,1.3,1.6,2c0.5,0.8,0.8,1.5,1.1,2.1
		c0.4,1.1,0.9,2.3,1.5,3.6c0.5,1.3,1.1,2.6,1.7,4c0.6,1.4,1.2,2.8,1.8,4.2c0.6,1.4,1.2,2.8,1.7,4c1.3,3.1,2.6,6.2,4,9.4H100.2z
		 M79.1,29.8h9.6l-5.5-13.7L79.1,29.8z"/>
	<path d="M133,9v0.4h-2c-0.6,0-1.2,0.2-1.7,0.7c-0.5,0.4-0.9,0.9-1,1.5l-6.9,29H117c-0.4-0.7-0.9-1.7-1.5-3s-1.4-2.8-2.2-4.5
		c-0.8-1.7-1.7-3.5-2.6-5.4c-0.9-1.9-1.8-3.7-2.7-5.6c-0.9-1.8-1.8-3.5-2.6-5.1c-0.8-1.6-1.6-2.9-2.2-4c-0.5-0.9-1-1.5-1.5-2
		c-0.5-0.5-0.9-0.8-1.2-1.1c-0.4-0.3-0.8-0.4-1.1-0.4V9h7.7c0.5,0,0.9,0,1.4,0.1c0.5,0,0.9,0.2,1.4,0.4c0.5,0.2,1,0.6,1.6,1
		c0.6,0.4,1.2,1.1,1.9,1.9c0.6,0.7,1.2,1.5,1.8,2.6c0.6,1.1,1.3,2.2,1.9,3.4c0.7,1.2,1.3,2.5,2,3.8c0.6,1.3,1.2,2.5,1.8,3.6
		c0.6,1.1,1.1,2.1,1.5,2.9c0.5,0.8,0.8,1.4,1.1,1.6l4.5-18.7c0-0.1,0-0.3,0-0.5c0-0.5-0.1-0.9-0.4-1.2c-0.3-0.3-0.7-0.4-1.2-0.4H124
		V9H133z"/>
	<path d="M158.6,36.3c0.6-0.8,1.1-1.6,1.4-2.3s0.6-1.4,0.7-2c0.1-0.6,0.2-1.2,0.2-1.8c0-0.6,0-1.1,0-1.7h0.4v12h-2.8h-7.5h-3.8H137
		h-4v-0.4h4V9.3h-4V9h4h10.3h3.1h10.3v10.5h-0.4c0-0.7,0-1.3,0-1.8c0-0.5-0.1-1.1-0.2-1.6c-0.1-0.5-0.3-1-0.6-1.6
		c-0.3-0.6-0.6-1.2-1.1-1.9c-0.5-0.8-1.1-1.4-1.7-1.8c-0.6-0.4-1.2-0.8-1.8-1c-0.6-0.2-1.3-0.3-2.1-0.4c-0.7,0-1.5-0.1-2.3-0.1h-3.1
		v14.8h1.9c0.5,0,1,0,1.5,0c0.5,0,0.9-0.1,1.3-0.2s0.8-0.3,1.1-0.6c0.3-0.3,0.7-0.6,1-1.1c0.5-0.7,0.9-1.5,1.2-2.2
		c0.3-0.7,0.4-1.6,0.4-2.5h0.3h0.1v13.9h-0.1h-0.3c0-0.9-0.1-1.7-0.4-2.4c-0.3-0.7-0.7-1.5-1.2-2.3c-0.6-0.9-1.3-1.4-2.1-1.7
		c-0.8-0.2-1.7-0.4-2.8-0.4h-1.9v15.7h3.8c0.8,0,1.6,0,2.2-0.1s1.2-0.2,1.8-0.4c0.6-0.2,1.1-0.6,1.7-1.1S158,37.3,158.6,36.3z"/>
	<path d="M190.3,36c0.6-0.8,1-1.7,1.4-2.6c0.3-0.9,0.6-1.8,0.7-2.6s0.2-1.6,0.3-2.4s0.1-1.4,0.1-1.9h0.4v14h-13.5h-9.8h-4.5v-0.4
		h4.5V9.3h-4.5V9h4.5h14.4v0.4h-4.5v30.8h1.3c0.8,0,1.7-0.1,2.6-0.2c0.9-0.1,1.7-0.3,2.5-0.6c0.8-0.3,1.6-0.7,2.3-1.3
		S189.7,36.8,190.3,36z"/>
</g>
</svg>
