<?xml version="1.0" encoding="utf-8"?>
<!-- Generator: Adobe Illustrator 24.2.1, SVG Export Plug-In . SVG Version: 6.00 Build 0)  -->
<svg version="1.1" id="Layer_1" xmlns="http://www.w3.org/2000/svg" xmlns:xlink="http://www.w3.org/1999/xlink" x="0px" y="0px"
	 viewBox="0 0 200 50" style="enable-background:new 0 0 200 50;" xml:space="preserve">
<style type="text/css">
	.st0{enable-background:new    ;}
</style>
<g class="st0">
	<path d="M-95.6,103.1v11.7H-96c0-1.3-0.2-2.6-0.7-3.8s-1.2-2.5-2.2-4c-0.5-0.8-1.1-1.4-1.6-1.9s-1-0.8-1.5-1.1
		c-0.5-0.3-0.9-0.4-1.4-0.5c-0.4-0.1-0.9-0.1-1.3-0.1v30.7h4.5v0.4H-119v-0.4h4.5v-30.6c-0.4,0-0.9,0-1.4,0.1s-1,0.2-1.6,0.5
		c-0.5,0.2-1.1,0.6-1.7,1c-0.6,0.5-1.1,1.1-1.6,1.8c-1,1.4-1.6,2.8-2,4c-0.3,1.2-0.4,2.5-0.4,3.8h-0.5v-11.6H-95.6z"/>
	<path d="M-67.7,121.6c0.8,1,1.7,2.2,2.7,3.6c0.9,1.4,1.9,2.8,2.8,4.2s1.7,2.5,2.5,3.5c0.7,1,1.3,1.4,1.7,1.4v0.3h-8
		c-1.6,0-3-0.4-4.1-1.3c-1.2-0.9-2.2-1.9-3.1-3.2c-0.9-1.3-1.8-2.7-2.6-4.1c-0.8-1.4-1.7-2.8-2.6-4.1c-1-1.4-1.6-2.3-1.9-2.9
		c-0.4-0.6-0.7-0.9-0.9-0.9v16.1h4.5v0.4h-18.9v-0.4h4.5v-30.8h-4.5v-0.3H-72c1.9,0.2,3.5,0.5,5,1.1c0.6,0.3,1.2,0.6,1.8,1
		c0.6,0.4,1.1,0.8,1.6,1.4c0.5,0.6,0.9,1.2,1.1,1.9c0.3,0.7,0.4,1.6,0.4,2.5c0,1.7-0.4,3-1.2,3.9c-0.8,0.9-1.7,1.7-2.8,2.1
		c-1.1,0.5-2.1,0.8-3.2,0.9c-0.9,0.1-1.8,0.2-2.3,0.2h-0.6H-78c1.4,0,2.8,0.2,4.1,0.4c1.1,0.2,2.3,0.6,3.4,1.1
		C-69.4,120.1-68.4,120.7-67.7,121.6z M-81.2,103.5v14.3h2.7c1.1,0,2.1-0.1,2.9-0.2c0.8-0.2,1.4-0.5,1.8-0.9c0.5-0.4,0.8-1,1-1.8
		c0.2-0.7,0.3-1.7,0.3-2.9v-1c0-1.6-0.4-3-1.1-4c-0.8-1-1.6-1.8-2.5-2.3c-1.1-0.6-2.2-1-3.6-1.3L-81.2,103.5L-81.2,103.5z"/>
	<path d="M-31,134.6c-1.7,0-3.1-0.2-4.2-0.7c-1.2-0.5-2.2-1.2-3-2.1c-0.9-0.9-1.6-2-2.2-3.3c-0.6-1.3-1.3-2.7-1.9-4.3h-9.9l-2.3,8.2
		c0,0.1,0,0.2,0,0.3c0,0.1,0,0.2,0,0.3c0,0.3,0.1,0.6,0.3,0.8c0.2,0.2,0.5,0.3,0.9,0.3h2.4v0.4h-9.4v-0.4h2.6c0.6,0,1.1-0.2,1.7-0.6
		c0.6-0.4,0.9-0.9,1.1-1.5l6.7-22.6c-0.3-0.6-0.7-1.2-1.1-1.9s-0.9-1.4-1.4-2s-1-1.1-1.6-1.5c-0.5-0.4-1.1-0.6-1.6-0.6v-0.3h8.1
		c1.1,0,2.1,0.2,2.9,0.6c0.9,0.4,1.6,0.9,2.2,1.5c0.6,0.6,1.2,1.3,1.6,2c0.5,0.8,0.8,1.5,1.1,2.1c0.4,1.1,0.9,2.3,1.5,3.6
		c0.5,1.3,1.1,2.6,1.7,4s1.2,2.8,1.8,4.2c0.6,1.4,1.2,2.8,1.7,4c1.3,3.1,2.6,6.2,4,9.4L-31,134.6L-31,134.6z M-52.1,123.9h9.6
		l-5.5-13.7L-52.1,123.9z"/>
	<path d="M1.8,103.1v0.4h-2c-0.6,0-1.2,0.2-1.7,0.7c-0.5,0.4-0.9,0.9-1,1.5l-6.9,29h-4.4c-0.4-0.7-0.9-1.7-1.5-3
		c-0.6-1.3-1.4-2.8-2.2-4.5c-0.8-1.7-1.7-3.5-2.6-5.4c-0.9-1.9-1.8-3.7-2.7-5.6c-0.9-1.8-1.8-3.5-2.6-5.1c-0.8-1.6-1.6-2.9-2.2-4
		c-0.5-0.9-1-1.5-1.5-2s-0.9-0.8-1.2-1.1c-0.4-0.3-0.8-0.4-1.1-0.4v-0.5h7.7c0.5,0,0.9,0,1.4,0.1c0.5,0,0.9,0.2,1.4,0.4
		c0.5,0.2,1,0.6,1.6,1s1.2,1.1,1.9,1.9c0.6,0.7,1.2,1.5,1.8,2.6c0.6,1.1,1.3,2.2,1.9,3.4c0.7,1.2,1.3,2.5,2,3.8
		c0.6,1.3,1.2,2.5,1.8,3.6c0.6,1.1,1.1,2.1,1.5,2.9c0.5,0.8,0.8,1.4,1.1,1.6l4.5-18.7c0-0.1,0-0.3,0-0.5c0-0.5-0.1-0.9-0.4-1.2
		c-0.3-0.3-0.7-0.4-1.2-0.4h-2.4v-0.5H1.8z"/>
	<path d="M27.4,130.4c0.6-0.8,1.1-1.6,1.4-2.3s0.6-1.4,0.7-2c0.1-0.6,0.2-1.2,0.2-1.8c0-0.6,0-1.1,0-1.7h0.4v12h-2.8h-7.5H16H5.8h-4
		v-0.4h4v-30.8h-4v-0.3h4h10.3h3.1h10.3v10.5h-0.4c0-0.7,0-1.3,0-1.8s-0.1-1.1-0.2-1.6c-0.1-0.5-0.3-1-0.6-1.6s-0.6-1.2-1.1-1.9
		c-0.5-0.8-1.1-1.4-1.7-1.8c-0.6-0.4-1.2-0.8-1.8-1c-0.6-0.2-1.3-0.3-2.1-0.4c-0.7,0-1.5-0.1-2.3-0.1h-3.1v14.8h1.9c0.5,0,1,0,1.5,0
		s0.9-0.1,1.3-0.2s0.8-0.3,1.1-0.6c0.3-0.3,0.7-0.6,1-1.1c0.5-0.7,0.9-1.5,1.2-2.2c0.3-0.7,0.4-1.6,0.4-2.5h0.3H25v13.9h-0.1h-0.3
		c0-0.9-0.1-1.7-0.4-2.4c-0.3-0.7-0.7-1.5-1.2-2.3c-0.6-0.9-1.3-1.4-2.1-1.7c-0.8-0.2-1.7-0.4-2.8-0.4h-1.9v15.7H20
		c0.8,0,1.6,0,2.2-0.1c0.6-0.1,1.2-0.2,1.8-0.4s1.1-0.6,1.7-1.1S26.8,131.4,27.4,130.4z"/>
	<path d="M59.1,130.1c0.6-0.8,1-1.7,1.4-2.6c0.3-0.9,0.6-1.8,0.7-2.6s0.2-1.6,0.3-2.4c0.1-0.8,0.1-1.4,0.1-1.9H62v14H48.5h-9.8h-4.5
		v-0.4h4.5v-30.8h-4.5v-0.3h4.5h14.4v0.4h-4.5v30.8h1.3c0.8,0,1.7-0.1,2.6-0.2c0.9-0.1,1.7-0.3,2.5-0.6c0.8-0.3,1.6-0.7,2.3-1.3
		C58,131.6,58.5,130.9,59.1,130.1z"/>
</g>
<g>
	<path d="M-26-95.2c0.5-0.6,0.8-1.2,1.1-1.8c0.2-0.5,0.4-1.1,0.5-1.5c0.1-0.5,0.2-0.9,0.2-1.4c0-0.4,0-0.8,0-1.3h0.3v9H-26h-5.6
		h-2.9h-7.8h-3v-0.3h3v-23.3h-3v-0.3h3h7.8h2.3h7.8v7.9h-0.3c0-0.5,0-1,0-1.4c0-0.4-0.1-0.8-0.2-1.2c-0.1-0.4-0.3-0.8-0.5-1.2
		c-0.2-0.4-0.5-0.9-0.9-1.4c-0.4-0.6-0.8-1.1-1.3-1.4c-0.4-0.3-0.9-0.6-1.4-0.7c-0.5-0.2-1-0.3-1.6-0.3c-0.6,0-1.1-0.1-1.8-0.1h-2.3
		v11.2h1.5c0.4,0,0.8,0,1.1,0c0.3,0,0.7-0.1,1-0.2c0.3-0.1,0.6-0.3,0.8-0.5c0.2-0.2,0.5-0.5,0.7-0.9c0.4-0.6,0.7-1.1,0.9-1.7
		c0.2-0.6,0.3-1.2,0.3-1.9h0.2h0.1v10.5h-0.1h-0.2c0-0.7-0.1-1.3-0.3-1.8c-0.2-0.6-0.5-1.1-0.9-1.7c-0.5-0.7-1-1.1-1.6-1.3
		c-0.6-0.2-1.3-0.3-2.1-0.3h-1.5v11.8h2.9c0.6,0,1.2,0,1.7-0.1c0.5,0,0.9-0.1,1.4-0.3c0.4-0.2,0.9-0.4,1.3-0.8
		C-26.9-93.9-26.5-94.4-26-95.2z"/>
	<path d="M-0.8-92c-1.2,0-2.3-0.2-3.2-0.6c-0.9-0.4-1.6-0.9-2.3-1.6c-0.6-0.7-1.2-1.5-1.7-2.5c-0.5-1-1-2-1.4-3.2h-7.5l-1.8,6.2
		c0,0.1,0,0.1,0,0.2c0,0.1,0,0.2,0,0.2c0,0.2,0.1,0.5,0.2,0.6c0.1,0.2,0.4,0.3,0.7,0.3h1.8v0.3h-7.1v-0.3h1.9c0.4,0,0.9-0.1,1.3-0.4
		c0.4-0.3,0.7-0.7,0.8-1.1l5.2-17.2c-0.2-0.4-0.5-0.9-0.9-1.4c-0.3-0.5-0.7-1-1.1-1.5c-0.4-0.5-0.8-0.8-1.2-1.1
		c-0.4-0.3-0.8-0.5-1.2-0.5v-0.3h6.2c0.8,0,1.6,0.2,2.2,0.5c0.6,0.3,1.2,0.7,1.7,1.2c0.5,0.5,0.9,1,1.2,1.5c0.3,0.6,0.6,1.1,0.8,1.6
		c0.3,0.8,0.7,1.7,1.1,2.7c0.4,1,0.8,2,1.3,3c0.4,1.1,0.9,2.1,1.3,3.2c0.5,1.1,0.9,2.1,1.3,3.1c1,2.3,2,4.7,3,7.1H-0.8z
		 M-16.8-100.1h7.3l-4.2-10.3L-16.8-100.1z"/>
	<path d="M23.1-115.9v8.9h-0.3c0-1-0.2-2-0.5-2.9c-0.4-0.9-0.9-1.9-1.6-3c-0.4-0.6-0.8-1.1-1.2-1.4c-0.4-0.4-0.8-0.6-1.1-0.8
		c-0.4-0.2-0.7-0.3-1.1-0.4c-0.3-0.1-0.7-0.1-1-0.1v23.2h3.4v0.3H5.4v-0.3h3.4v-23.2c-0.3,0-0.7,0-1.1,0.1c-0.4,0.1-0.8,0.2-1.2,0.4
		c-0.4,0.2-0.8,0.4-1.3,0.8c-0.4,0.3-0.8,0.8-1.2,1.4c-0.7,1.1-1.2,2.1-1.5,3c-0.3,0.9-0.4,1.9-0.4,2.9H1.9v-8.8H23.1z"/>
	<path d="M39.7-107.4c2.2,1.1,3.7,2.3,4.7,3.6c0.9,1.3,1.4,2.8,1.4,4.5c0,1.1-0.2,2.2-0.7,3.1c-0.5,0.9-1.1,1.7-1.9,2.4
		c-0.8,0.7-1.7,1.2-2.8,1.5c-1.1,0.4-2.2,0.5-3.4,0.5h-0.4c-1.1,0-2.2-0.2-3.2-0.6c-1.1-0.4-2.1-0.9-3.2-1.5c-0.1,0-0.2-0.1-0.3-0.1
		c-0.2,0-0.5,0.1-0.7,0.3c-0.2,0.2-0.4,0.4-0.6,0.7c-0.2,0.3-0.5,0.6-0.7,1h-0.3l-0.6-9.7h0.3c0.1,0.4,0.2,0.9,0.3,1.4
		c0.1,0.4,0.3,0.9,0.5,1.5c0.2,0.5,0.5,1.1,0.8,1.7c0.4,0.7,0.8,1.3,1.3,2.1c0.5,0.7,1.1,1.3,1.8,1.7c1.1,0.6,2.2,1.1,3.3,1.3
		c0.3,0.1,0.7,0.1,1.1,0.1c0.5,0,0.9,0,1.4-0.1c0.5,0,0.9-0.1,1.3-0.3c0.5-0.2,1-0.5,1.2-0.9c0.3-0.3,0.4-0.9,0.4-1.7
		c0-0.6-0.2-1.1-0.7-1.7c-0.5-0.6-1.2-1.1-2-1.7c-0.8-0.6-1.7-1.2-2.8-1.8c-1-0.6-2.1-1.2-3.2-1.9c-1.8-1.1-3.2-2.3-4-3.7
		c-0.8-1.3-1.2-2.8-1.2-4.5c0-1.9,0.8-3.4,2.3-4.3c1.5-1,3.8-1.4,6.8-1.4c1,0,2,0.2,3.1,0.6c1,0.4,2,0.8,3.1,1.4
		c0.1,0,0.2,0.1,0.3,0.1c0.2,0,0.5-0.1,0.7-0.3c0.2-0.2,0.5-0.4,0.7-0.6c0.2-0.3,0.5-0.6,0.7-1h0.3l0.8,7.4h-0.3
		c-0.1-0.1-0.2-0.3-0.3-0.6c-0.1-0.2-0.3-0.5-0.5-0.9c-0.2-0.4-0.5-0.9-0.9-1.4c-0.1-0.1-0.2-0.3-0.4-0.5c-0.2-0.2-0.4-0.5-0.6-0.7
		c-0.2-0.2-0.5-0.5-0.7-0.7c-0.3-0.2-0.5-0.5-0.7-0.7c-0.7-0.4-1.5-0.8-2.4-1.1c-0.9-0.3-1.8-0.5-2.7-0.5c-0.3,0-0.6,0-1,0.1
		c-0.4,0.1-0.7,0.2-1,0.4c-0.3,0.2-0.6,0.5-0.8,0.8c-0.2,0.3-0.3,0.7-0.3,1.2c0,0.8,0.6,1.7,1.7,2.6
		C35.3-109.7,37.1-108.6,39.7-107.4z"/>
</g>
<g>
	<path d="M41.8,13.1v0.3h-1.5c-0.5,0-0.9,0.2-1.3,0.5c-0.4,0.3-0.7,0.7-0.8,1.1l-5.2,21.9h-2.8c-0.3-0.5-0.7-1.2-1.2-2.2
		c-0.5-1-1-2.1-1.5-3.4c-0.6-1.3-1.1-2.6-1.8-4c-0.6-1.4-1.3-2.8-1.9-4.2L20,36.9h-2.4c-0.3-0.5-0.7-1.3-1.2-2.3
		c-0.5-1-1-2.2-1.6-3.5c-0.6-1.3-1.2-2.7-1.9-4.1c-0.7-1.5-1.3-2.9-2-4.3c-0.7-1.4-1.3-2.7-2-3.9c-0.6-1.2-1.2-2.2-1.8-3
		c-0.4-0.6-0.8-1.1-1.1-1.4c-0.3-0.3-0.6-0.6-0.8-0.8c-0.2-0.2-0.5-0.3-0.6-0.3v-0.3h3.2c1.6,0,2.9,0.2,4.1,0.5c1.2,0.4,2.1,1,2.8,2
		c0.4,0.5,0.8,1.2,1.2,2c0.4,0.8,0.9,1.6,1.3,2.5c0.5,0.9,0.9,1.8,1.4,2.7c0.5,0.9,0.9,1.8,1.3,2.6c0.4,0.8,0.8,1.6,1.1,2.2
		c0.3,0.6,0.6,1.1,0.8,1.4l1.9-6.4c-0.7-1.4-1.3-2.7-1.9-3.8c-0.6-1.1-1.2-2.1-1.7-2.9c-0.4-0.7-0.8-1.2-1.2-1.5
		c-0.4-0.4-0.7-0.6-0.9-0.8c-0.3-0.2-0.6-0.3-0.8-0.3v-0.3h2.5c0.8,0,1.6,0,2.3,0.1c0.7,0,1.4,0.2,2,0.4c0.6,0.2,1.2,0.5,1.8,0.9
		c0.6,0.4,1.2,0.9,1.8,1.6c0.4,0.5,0.8,1.1,1.3,1.9c0.5,0.8,0.9,1.6,1.3,2.5c0.4,0.9,0.9,1.8,1.3,2.7c0.4,0.9,0.9,1.7,1.2,2.5
		c0.4,0.8,0.7,1.5,1.1,2c0.3,0.6,0.6,1,0.8,1.2L38,15c0-0.2,0.1-0.4,0.1-0.5c0-0.4-0.1-0.7-0.4-0.9c-0.3-0.2-0.5-0.3-0.9-0.3H35
		v-0.3H41.8z"/>
	<path d="M61.2,33.8c0.5-0.6,0.8-1.2,1.1-1.8c0.2-0.5,0.4-1.1,0.5-1.5c0.1-0.5,0.2-0.9,0.2-1.4c0-0.4,0-0.8,0-1.3h0.3v9h-2.1h-5.6
		h-2.9h-7.8h-3v-0.3h3V13.4h-3v-0.3h3h7.8H55h7.8V21h-0.3c0-0.5,0-1,0-1.4c0-0.4-0.1-0.8-0.2-1.2c-0.1-0.4-0.3-0.8-0.5-1.2
		c-0.2-0.4-0.5-0.9-0.9-1.4c-0.4-0.6-0.8-1.1-1.3-1.4c-0.4-0.3-0.9-0.6-1.4-0.7c-0.5-0.2-1-0.3-1.6-0.3c-0.6,0-1.1-0.1-1.8-0.1h-2.3
		v11.2h1.5c0.4,0,0.8,0,1.1,0c0.3,0,0.7-0.1,1-0.2c0.3-0.1,0.6-0.3,0.8-0.5c0.2-0.2,0.5-0.5,0.7-0.9c0.4-0.6,0.7-1.1,0.9-1.7
		c0.2-0.6,0.3-1.2,0.3-1.9h0.2h0.1v10.5h-0.1h-0.2c0-0.7-0.1-1.3-0.3-1.8c-0.2-0.6-0.5-1.1-0.9-1.7c-0.5-0.7-1-1.1-1.6-1.3
		c-0.6-0.2-1.3-0.3-2.1-0.3h-1.5v11.8h2.9c0.6,0,1.2,0,1.7-0.1c0.5,0,0.9-0.1,1.4-0.3c0.4-0.2,0.9-0.4,1.3-0.8S60.7,34.5,61.2,33.8z
		"/>
	<path d="M86.3,36.9c-1.2,0-2.3-0.2-3.2-0.6c-0.9-0.4-1.6-0.9-2.3-1.6c-0.6-0.7-1.2-1.5-1.7-2.5c-0.5-1-1-2-1.4-3.2h-7.5l-1.8,6.2
		c0,0.1,0,0.1,0,0.2c0,0.1,0,0.2,0,0.2c0,0.2,0.1,0.5,0.2,0.6c0.1,0.2,0.4,0.3,0.7,0.3h1.8v0.3H64v-0.3h1.9c0.4,0,0.9-0.1,1.3-0.4
		c0.4-0.3,0.7-0.7,0.8-1.1l5.2-17.2c-0.2-0.4-0.5-0.9-0.9-1.4c-0.3-0.5-0.7-1-1.1-1.5c-0.4-0.5-0.8-0.8-1.2-1.1
		c-0.4-0.3-0.8-0.5-1.2-0.5v-0.3h6.2c0.8,0,1.6,0.2,2.2,0.5c0.6,0.3,1.2,0.7,1.7,1.2c0.5,0.5,0.9,1,1.2,1.5c0.3,0.6,0.6,1.1,0.8,1.6
		c0.3,0.8,0.7,1.7,1.1,2.7c0.4,1,0.8,2,1.3,3c0.4,1.1,0.9,2.1,1.3,3.2c0.5,1.1,0.9,2.1,1.3,3.1c1,2.3,2,4.7,3,7.1H86.3z M70.3,28.8
		h7.3l-4.2-10.3L70.3,28.8z"/>
	<path d="M110.3,13.1V22H110c0-1-0.2-2-0.5-2.9c-0.4-0.9-0.9-1.9-1.6-3c-0.4-0.6-0.8-1.1-1.2-1.4c-0.4-0.4-0.8-0.6-1.1-0.8
		c-0.4-0.2-0.7-0.3-1.1-0.4c-0.3-0.1-0.7-0.1-1-0.1v23.2h3.4v0.3H92.6v-0.3H96V13.4c-0.3,0-0.7,0-1.1,0.1c-0.4,0.1-0.8,0.2-1.2,0.4
		c-0.4,0.2-0.8,0.4-1.3,0.8s-0.8,0.8-1.2,1.4c-0.7,1.1-1.2,2.1-1.5,3c-0.3,0.9-0.4,1.9-0.4,2.9H89v-8.8H110.3z"/>
	<path d="M137.6,36.9h-9.7v-0.3h2.1v-12h-7.4v12h2.1v0.3H112v-0.3h3.1V13.4H112v-0.3h12.7v0.3h-2.1v11h7.4v-11h-2.1v-0.3h9.7V36.9z
		 M140.6,13.1v0.3h-3.1v-0.3H140.6z M137.6,36.6h3.1v0.3h-3.1V36.6z"/>
	<path d="M162.4,33.8c0.5-0.6,0.8-1.2,1.1-1.8c0.2-0.5,0.4-1.1,0.5-1.5c0.1-0.5,0.2-0.9,0.2-1.4c0-0.4,0-0.8,0-1.3h0.3v9h-2.1h-5.6
		h-2.9h-7.8h-3v-0.3h3V13.4h-3v-0.3h3h7.8h2.3h7.8V21h-0.3c0-0.5,0-1,0-1.4c0-0.4-0.1-0.8-0.2-1.2c-0.1-0.4-0.3-0.8-0.5-1.2
		c-0.2-0.4-0.5-0.9-0.9-1.4c-0.4-0.6-0.8-1.1-1.3-1.4c-0.4-0.3-0.9-0.6-1.4-0.7c-0.5-0.2-1-0.3-1.6-0.3c-0.6,0-1.1-0.1-1.8-0.1h-2.3
		v11.2h1.5c0.4,0,0.8,0,1.1,0c0.3,0,0.7-0.1,1-0.2c0.3-0.1,0.6-0.3,0.8-0.5c0.2-0.2,0.5-0.5,0.7-0.9c0.4-0.6,0.7-1.1,0.9-1.7
		c0.2-0.6,0.3-1.2,0.3-1.9h0.2h0.1v10.5h-0.1h-0.2c0-0.7-0.1-1.3-0.3-1.8c-0.2-0.6-0.5-1.1-0.9-1.7c-0.5-0.7-1-1.1-1.6-1.3
		c-0.6-0.2-1.3-0.3-2.1-0.3h-1.5v11.8h2.9c0.6,0,1.2,0,1.7-0.1c0.5,0,0.9-0.1,1.4-0.3c0.4-0.2,0.9-0.4,1.3-0.8
		C161.4,35.1,161.9,34.5,162.4,33.8z"/>
	<path d="M188,27.1c0.6,0.7,1.3,1.6,2,2.7c0.7,1.1,1.4,2.1,2.1,3.1c0.7,1,1.3,1.9,1.9,2.6s1,1.1,1.3,1.1v0.2h-6.1
		c-1.2,0-2.2-0.3-3.1-1c-0.9-0.6-1.7-1.5-2.4-2.4c-0.7-1-1.4-2-2-3.1c-0.6-1.1-1.3-2.1-1.9-3.1c-0.7-1-1.2-1.7-1.4-2.2
		c-0.2-0.4-0.4-0.6-0.6-0.7v12.2h3.4v0.3h-14.3v-0.3h3.4V13.4h-3.4v-0.3h17.8c1.4,0.1,2.7,0.4,3.8,0.8c0.5,0.2,0.9,0.4,1.4,0.7
		c0.5,0.3,0.9,0.6,1.2,1.1c0.4,0.4,0.7,0.9,0.9,1.5c0.2,0.6,0.3,1.2,0.3,1.9c0,1.3-0.3,2.3-0.9,3c-0.6,0.7-1.3,1.2-2.1,1.6
		c-0.8,0.4-1.6,0.6-2.4,0.7c-0.8,0.1-1.4,0.1-1.8,0.1h-0.4l-4.4,0c1.1,0,2.1,0.1,3.1,0.3c0.9,0.2,1.7,0.4,2.6,0.8
		C186.8,25.9,187.5,26.5,188,27.1z M177.8,13.4v10.8h2.1c0.9,0,1.6-0.1,2.2-0.2c0.6-0.1,1-0.4,1.4-0.7c0.4-0.3,0.6-0.8,0.7-1.3
		c0.1-0.6,0.2-1.3,0.2-2.2v-0.7c0-1.2-0.3-2.3-0.9-3c-0.6-0.8-1.2-1.3-1.9-1.7c-0.8-0.5-1.7-0.8-2.7-1H177.8z"/>
</g>
<g>
	<path d="M-32.2-75.1c2.2,1.1,3.7,2.3,4.7,3.6c0.9,1.3,1.4,2.8,1.4,4.5c0,1.1-0.2,2.2-0.7,3.1c-0.5,0.9-1.1,1.7-1.9,2.4
		c-0.8,0.7-1.7,1.2-2.8,1.5c-1.1,0.4-2.2,0.5-3.4,0.5h-0.4c-1.1,0-2.2-0.2-3.2-0.6c-1.1-0.4-2.1-0.9-3.2-1.5c-0.1,0-0.2-0.1-0.3-0.1
		c-0.2,0-0.5,0.1-0.7,0.3c-0.2,0.2-0.4,0.4-0.6,0.7c-0.2,0.3-0.5,0.6-0.7,1h-0.3l-0.6-9.7h0.3c0.1,0.4,0.2,0.9,0.3,1.4
		c0.1,0.4,0.3,0.9,0.5,1.5c0.2,0.5,0.5,1.1,0.8,1.7c0.4,0.7,0.8,1.3,1.3,2.1c0.5,0.7,1.1,1.3,1.8,1.7c1.1,0.6,2.2,1.1,3.3,1.3
		c0.3,0.1,0.7,0.1,1.1,0.1c0.5,0,0.9,0,1.4-0.1c0.5,0,0.9-0.1,1.3-0.3c0.5-0.2,1-0.5,1.2-0.9c0.3-0.3,0.4-0.9,0.4-1.7
		c0-0.6-0.2-1.1-0.7-1.7c-0.5-0.6-1.2-1.1-2-1.7c-0.8-0.6-1.7-1.2-2.8-1.8c-1-0.6-2.1-1.2-3.2-1.9c-1.8-1.1-3.2-2.3-4-3.7
		c-0.8-1.3-1.2-2.8-1.2-4.5c0-1.9,0.8-3.4,2.3-4.3c1.5-1,3.8-1.4,6.8-1.4c1,0,2,0.2,3.1,0.6c1,0.4,2,0.8,3.1,1.4
		c0.1,0,0.2,0.1,0.3,0.1c0.2,0,0.5-0.1,0.7-0.3c0.2-0.2,0.5-0.4,0.7-0.6c0.2-0.3,0.5-0.6,0.7-1h0.3l0.8,7.4H-27
		c-0.1-0.1-0.2-0.3-0.3-0.6c-0.1-0.2-0.3-0.5-0.5-0.9c-0.2-0.4-0.5-0.9-0.9-1.4c-0.1-0.1-0.2-0.3-0.4-0.5c-0.2-0.2-0.4-0.5-0.6-0.7
		c-0.2-0.2-0.5-0.5-0.7-0.7c-0.3-0.2-0.5-0.5-0.7-0.7c-0.7-0.4-1.5-0.8-2.4-1.1c-0.9-0.3-1.8-0.5-2.7-0.5c-0.3,0-0.6,0-1,0.1
		c-0.4,0.1-0.7,0.2-1,0.4c-0.3,0.2-0.6,0.5-0.8,0.8c-0.2,0.3-0.3,0.7-0.3,1.2c0,0.8,0.6,1.7,1.7,2.6C-36.6-77.4-34.7-76.4-32.2-75.1
		z"/>
	<path d="M-2.9-83.6v8.9h-0.3c0-1-0.2-2-0.5-2.9c-0.4-0.9-0.9-1.9-1.6-3c-0.4-0.6-0.8-1.1-1.2-1.4c-0.4-0.4-0.8-0.6-1.1-0.8
		C-8-83-8.4-83.2-8.7-83.2c-0.3-0.1-0.7-0.1-1-0.1v23.2h3.4v0.3h-14.3v-0.3h3.4v-23.2c-0.3,0-0.7,0-1.1,0.1
		c-0.4,0.1-0.8,0.2-1.2,0.4c-0.4,0.2-0.8,0.4-1.3,0.8c-0.4,0.3-0.8,0.8-1.2,1.4c-0.7,1.1-1.2,2.1-1.5,3c-0.3,0.9-0.4,1.9-0.4,2.9
		h-0.3v-8.8H-2.9z"/>
	<path d="M17.8-59.8c-1.2,0-2.3-0.2-3.2-0.6c-0.9-0.4-1.6-0.9-2.3-1.6c-0.6-0.7-1.2-1.5-1.7-2.5c-0.5-1-1-2-1.4-3.2H1.7L0-61.4
		c0,0.1,0,0.1,0,0.2c0,0.1,0,0.2,0,0.2c0,0.2,0.1,0.5,0.2,0.6c0.1,0.2,0.4,0.3,0.7,0.3h1.8v0.3h-7.1v-0.3h1.9c0.4,0,0.9-0.1,1.3-0.4
		c0.4-0.3,0.7-0.7,0.8-1.1l5.2-17.2c-0.2-0.4-0.5-0.9-0.9-1.4c-0.3-0.5-0.7-1-1.1-1.5c-0.4-0.5-0.8-0.8-1.2-1.1
		c-0.4-0.3-0.8-0.5-1.2-0.5v-0.3h6.2c0.8,0,1.6,0.2,2.2,0.5c0.6,0.3,1.2,0.7,1.7,1.2c0.5,0.5,0.9,1,1.2,1.5c0.3,0.6,0.6,1.1,0.8,1.6
		c0.3,0.8,0.7,1.7,1.1,2.7c0.4,1,0.8,2,1.3,3c0.4,1.1,0.9,2.1,1.3,3.2c0.5,1.1,0.9,2.1,1.3,3.1c1,2.3,2,4.7,3,7.1H17.8z M1.8-67.9
		h7.3L5-78.2L1.8-67.9z"/>
	<path d="M46.2-83.7v0.3h-0.4c-0.2,0-0.4,0-0.7,0.1c-0.2,0-0.4,0.1-0.7,0.2c-0.3,0.1-0.5,0.1-0.8,0.3c-0.4,0.2-0.7,0.3-0.9,0.6
		c-0.2,0.2-0.4,0.4-0.6,0.6c-0.2,0.2-0.3,0.5-0.4,0.7l-4.3,10.2v10.7h3.4v0.3H26.3v-0.3h3.4v-10.7L22-83.3v-0.3h1.7
		c0.9,0,1.7,0,2.4,0.1c0.7,0.1,1.4,0.2,2.1,0.5c0.6,0.3,1.3,0.6,1.8,1.1c0.6,0.5,1.2,1.1,1.8,1.9l5.5,8.8l4.2-10
		c0.1-0.2,0.1-0.4,0.1-0.8c0-0.1,0-0.3,0-0.4c0-0.1-0.1-0.3-0.1-0.4c-0.1-0.2-0.2-0.3-0.3-0.4c-0.1-0.1-0.3-0.2-0.4-0.2
		c-0.2,0-0.3-0.1-0.5-0.1H39v-0.3H46.2z"/>
	<path d="M59.9-75.1c2.2,1.1,3.7,2.3,4.7,3.6c0.9,1.3,1.4,2.8,1.4,4.5c0,1.1-0.2,2.2-0.7,3.1c-0.5,0.9-1.1,1.7-1.9,2.4
		c-0.8,0.7-1.7,1.2-2.8,1.5c-1.1,0.4-2.2,0.5-3.4,0.5h-0.4c-1.1,0-2.2-0.2-3.2-0.6c-1.1-0.4-2.1-0.9-3.2-1.5c-0.1,0-0.2-0.1-0.3-0.1
		c-0.2,0-0.5,0.1-0.7,0.3c-0.2,0.2-0.4,0.4-0.6,0.7c-0.2,0.3-0.5,0.6-0.7,1h-0.3L47-69.5h0.3c0.1,0.4,0.2,0.9,0.3,1.4
		c0.1,0.4,0.3,0.9,0.5,1.5c0.2,0.5,0.5,1.1,0.8,1.7c0.4,0.7,0.8,1.3,1.3,2.1c0.5,0.7,1.1,1.3,1.8,1.7c1.1,0.6,2.2,1.1,3.3,1.3
		c0.3,0.1,0.7,0.1,1.1,0.1c0.5,0,0.9,0,1.4-0.1c0.5,0,0.9-0.1,1.3-0.3c0.5-0.2,1-0.5,1.2-0.9c0.3-0.3,0.4-0.9,0.4-1.7
		c0-0.6-0.2-1.1-0.7-1.7c-0.5-0.6-1.2-1.1-2-1.7c-0.8-0.6-1.7-1.2-2.8-1.8c-1-0.6-2.1-1.2-3.2-1.9c-1.8-1.1-3.2-2.3-4-3.7
		c-0.8-1.3-1.2-2.8-1.2-4.5c0-1.9,0.8-3.4,2.3-4.3c1.5-1,3.8-1.4,6.8-1.4c1,0,2,0.2,3.1,0.6c1,0.4,2,0.8,3.1,1.4
		c0.1,0,0.2,0.1,0.3,0.1c0.2,0,0.5-0.1,0.7-0.3c0.2-0.2,0.5-0.4,0.7-0.6c0.2-0.3,0.5-0.6,0.7-1h0.3l0.8,7.4h-0.3
		c-0.1-0.1-0.2-0.3-0.3-0.6c-0.1-0.2-0.3-0.5-0.5-0.9c-0.2-0.4-0.5-0.9-0.9-1.4c-0.1-0.1-0.2-0.3-0.4-0.5c-0.2-0.2-0.4-0.5-0.6-0.7
		c-0.2-0.2-0.5-0.5-0.7-0.7c-0.3-0.2-0.5-0.5-0.7-0.7c-0.7-0.4-1.5-0.8-2.4-1.1c-0.9-0.3-1.8-0.5-2.7-0.5c-0.3,0-0.6,0-1,0.1
		c-0.4,0.1-0.7,0.2-1,0.4c-0.3,0.2-0.6,0.5-0.8,0.8c-0.2,0.3-0.3,0.7-0.3,1.2c0,0.8,0.6,1.7,1.7,2.6C55.5-77.4,57.3-76.4,59.9-75.1z
		"/>
</g>
</svg>
