<?xml version="1.0" standalone="no"?>
<!DOCTYPE svg PUBLIC "-//W3C//DTD SVG 1.1//EN" "http://www.w3.org/Graphics/SVG/1.1/DTD/svg11.dtd" >
<svg xmlns="http://www.w3.org/2000/svg" xmlns:xlink="http://www.w3.org/1999/xlink" version="1.1">
<metadata>
Created by FontForge 20170731 at Sun Jan 24 14:52:41 2010
 By Aleksey,,,
(c)BROPIX
</metadata>
<defs>
<font id="NouvelleVague-Black" horiz-adv-x="833" >
  <font-face 
    font-family="Nouvelle Vague"
    font-weight="900"
    font-stretch="normal"
    units-per-em="1000"
    panose-1="0 0 0 0 0 0 0 0 0 0"
    ascent="750"
    descent="-250"
    x-height="517"
    cap-height="700"
    bbox="-545 -207 1113 882"
    underline-thickness="50"
    underline-position="-150"
    unicode-range="U+0020-FB01"
  />
<missing-glyph horiz-adv-x="500" 
 />
    <glyph glyph-name=".notdef" horiz-adv-x="500" 
 />
    <glyph glyph-name=".null" horiz-adv-x="0" 
 />
    <glyph glyph-name="nonmarkingreturn" horiz-adv-x="358" 
 />
    <glyph glyph-name="space" unicode=" " horiz-adv-x="305" 
 />
    <glyph glyph-name="space" unicode="&#xa0;" horiz-adv-x="305" 
 />
    <glyph glyph-name="comma" unicode="," horiz-adv-x="272" 
d="M263 101q0 -45 -9.5 -80.5t-35.5 -64.5q-27 -29 -63.5 -43.5t-73.5 -20.5l-2 8q37 6 69 17.5t57 39.5q8 9 14.5 21.5t11 25t7 24t2.5 18.5q0 5 -6.5 -3t-19.5 -20t-33 -22.5t-47 -10.5q-26 0 -48.5 8.5t-39.5 23.5t-27 35.5t-10 43.5t10 43t27 35t39.5 23.5t48.5 8.5
q27 0 50.5 -8t41 -22.5t27.5 -34.5t10 -45z" />
    <glyph glyph-name="period" unicode="." horiz-adv-x="270" 
d="M8 100q0 23 10 43t27 35t39.5 23.5t48.5 8.5q27 0 50.5 -8.5t41 -23.5t27.5 -35t10 -43t-10 -43.5t-27.5 -35.5t-41 -23.5t-50.5 -8.5q-26 0 -48.5 8.5t-39.5 23.5t-27 35.5t-10 43.5z" />
    <glyph glyph-name="one" unicode="1" horiz-adv-x="374" 
d="M0 517q32 4 74.5 20t83 40t73 55.5t43.5 67.5h10v-692h77v-8h-349v8h73v508l-85 -8v9v0z" />
    <glyph glyph-name="two" unicode="2" horiz-adv-x="579" 
d="M531 157q0 -8 0.5 -16.5t0.5 -16.5q0 -26 -3.5 -51t-16.5 -48q-16 -29 -40 -35.5t-57 -6.5q-34 0 -65 6.5t-61 15t-61 15t-65 6.5q-17 0 -37.5 1t-41.5 -0.5t-40 -7t-31 -19.5h-10q0 36 15 69t39 63t55 57t64 51q41 30 68 64.5t42.5 70t22 71.5t6.5 69q0 38 -6 70t-19 55
t-34 36t-51 13q-25 0 -43 -4t-27 -8q-4 -2 -11.5 -11t-7.5 -21q0 -15 17 -24.5t37.5 -20.5t37.5 -29t17 -51q0 -22 -9 -41t-24 -32.5t-34 -21.5t-38 -8q-23 0 -41 9.5t-31 24.5t-20 33.5t-7 37.5q0 32 12.5 60.5t33 51.5t45 38.5t48.5 21.5q22 5 51 8.5t53 3.5
q50 0 94.5 -12t78.5 -37.5t53.5 -66t19.5 -96.5q0 -45 -13 -77t-37 -57t-58.5 -45.5t-77.5 -41.5q-47 -12 -94.5 -36t-85.5 -50.5t-62.5 -52t-24.5 -41.5q0 -5 2 -11t5 -1t21.5 26t48.5 43t70 38t87 12q39 -3 66.5 -14t49 -22.5t38 -20t33.5 -8.5q17 1 31 4t14 19
q3 0 4.5 -0.5t2.5 -0.5h1v0z" />
    <glyph glyph-name="three" unicode="3" horiz-adv-x="553" 
d="M358 370q35 -5 67.5 -15.5t57.5 -31.5t39.5 -53.5t13.5 -81.5q-1 -58 -27.5 -94.5t-63.5 -57.5t-76.5 -28.5t-67.5 -7.5h-107q-26 0 -57 7.5t-57.5 23t-44.5 39.5t-18 57q0 18 7 33.5t19 27t27.5 18.5t32.5 7t32.5 -7t27.5 -18.5t19 -27t7 -33.5q0 -34 -25 -61
q1 0 -3.5 -3.5t-10 -9t-10.5 -12t-5 -11.5q0 -9 9.5 -13t21.5 -5.5t23 -1.5h13q9 1 27 7.5t36.5 25t32 53.5t13.5 92q0 66 -18.5 102.5t-40.5 53.5t-41.5 20t-20.5 3v8q35 1 62 18q23 14 42.5 44t19.5 86v22q0 33 -6 60t-21 46.5t-39 30.5t-60 11q-2 0 -8 -1t-12 -3.5
t-11 -6.5t-5 -10q0 -5 4.5 -10.5t9.5 -11t9.5 -9.5t4.5 -5q13 -13 19 -28.5t6 -32.5t-7 -32.5t-18.5 -27.5t-27 -19t-33.5 -7t-33.5 7t-27 18.5t-18.5 27t-7 33.5q0 33 17.5 57t44 39.5t57.5 23t59 7.5h7l95 -1q53 -3 94 -20q18 -8 35 -19t30.5 -27.5t21.5 -38.5t8 -51
q0 -45 -21 -77.5t-47.5 -53.5t-49.5 -31t-26 -10v-3v0z" />
    <glyph glyph-name="four" unicode="4" horiz-adv-x="551" 
d="M537 258h-115l2 -250h100v-8h-100h-182h-2h-99v8h99l-1 250h-236l312 442h109v-429h115v-13h-2zM241 271l1 301l-204 -289q-3 -5 -1.5 -8.5t6.5 -3.5h198z" />
    <glyph glyph-name="five" unicode="5" horiz-adv-x="571" 
d="M454 415q42 -23 71.5 -69.5t29.5 -112.5q0 -64 -26.5 -108.5t-68.5 -72t-94 -40t-103 -12.5q-42 0 -79 11.5t-64.5 35.5t-43.5 61.5t-16 89.5q0 19 7.5 38t21 33.5t32.5 23.5t42 9q19 0 37.5 -7.5t33 -21t23.5 -32t9 -41.5q0 -24 -10.5 -37.5t-26 -21t-33.5 -12.5
t-33.5 -12t-26 -19t-10.5 -34q0 -8 9 -15.5t20 -14t22 -11t15 -5.5q14 -3 22 -5t15.5 -3t16.5 -1h24q26 0 41.5 15.5t24 44.5t11.5 70.5t3 93.5q0 103 -21 161.5t-67 58.5q-28 0 -49 -3.5t-40 -10.5t-37.5 -18t-42.5 -26q-3 -2 -7.5 -5.5t-5.5 -3.5q-1 -1 -2 -1q-2 0 -3 1
q-2 0 -2 3v3l4 34l10 133l10 162q0 1 1 2q0 1 2 3q1 1 4 1h2l20 -3q30 -3 58 -7t55.5 -7t55.5 -5t59 -2q38 0 77 7t73 24l2 1l4 -4l-2 -10t-3 -10.5t-4 -11.5q-17 -41 -47.5 -71.5t-69 -50.5t-81 -30t-84.5 -10q-36 0 -67.5 9t-54.5 39l-2 -27l-10 -133q-1 -11 2.5 -16.5
t9.5 -1.5q22 14 41 25t38 18t40 10.5t48 3.5q29 0 50 -1t41 -5.5t43 -14.5t56 -28z" />
    <glyph glyph-name="colon" unicode=":" horiz-adv-x="272" 
d="M8 100q0 23 10 43t27 35t39.5 23.5t48.5 8.5q27 0 50.5 -8.5t41 -23.5t27.5 -35t10 -43t-10 -43.5t-27.5 -35.5t-41 -23.5t-50.5 -8.5q-26 0 -48.5 8.5t-39.5 23.5t-27 35.5t-10 43.5zM8 415q0 23 10 43t27 35t39.5 23.5t48.5 8.5q27 0 50.5 -8.5t41 -23.5t27.5 -35
t10 -43t-10 -43.5t-27.5 -35.5t-41 -23.5t-50.5 -8.5q-26 0 -48.5 8.5t-39.5 23.5t-27 35.5t-10 43.5z" />
    <glyph glyph-name="at" unicode="@" horiz-adv-x="573" 
d="M438 395q15 -9 35 -24.5t38 -37t30 -49t12 -61.5q0 -17 -5 -40q-10 -42 -31.5 -77.5t-54.5 -61t-76.5 -39.5t-97.5 -14h-13q-48 0 -94.5 17.5t-94.5 45.5q-3 2 -9 2q-11 0 -21 -8.5t-19 -19.5q-11 -12 -20 -28h-8l-19 285h8q3 -19 8 -41q5 -19 13.5 -43t24.5 -50
q17 -29 39.5 -61t52.5 -50q47 -28 96 -37q15 -3 33 -3q20 0 41 3.5t38 10.5q20 9 37 28t17 50q0 11 -3 25q-3 13 -16.5 30t-33.5 35.5t-44.5 38.5t-49.5 38q-59 43 -132 89q-32 18 -57 44q-22 22 -39.5 54.5t-17.5 77.5q0 36 14 74q13 33 35 54.5t49 34t56.5 17.5t56.5 5
q25 0 45.5 -3t34.5 -7q22 -6 59 -20t73 -32q6 -2 8 -2q11 0 21.5 8t19.5 19q11 12 20 28h8l23 -217h-8q-3 6 -9 17q-5 10 -15.5 26.5t-26.5 42.5q-4 6 -11.5 16t-17.5 21t-21.5 22t-21.5 20q-17 11 -41 21.5t-61 21.5q-27 7 -49 7q-5 0 -9.5 -0.5t-9.5 -0.5q-10 -1 -22 -4
t-22.5 -11.5t-17.5 -23t-7 -38.5t8 -41.5t22 -31.5t32.5 -25.5t39.5 -23.5q37 -22 71 -41q29 -17 59 -34t48 -28z" />
    <glyph glyph-name="A" unicode="A" horiz-adv-x="735" 
d="M656 0q-55 0 -93.5 16.5t-67 46.5t-49.5 72.5t-42 94.5h-221l-52 -183q-1 -3 -1 -6.5v-6.5q0 -11 6 -18.5t20 -7.5h53v-8h-209v8h57q19 0 37.5 12.5t24.5 33.5l153 505q-11 19 -25.5 42.5t-31.5 43.5t-35 33.5t-35 13.5v8h181q37 0 65.5 -13.5t50 -34t36.5 -45.5t24 -47
q15 -36 32.5 -79t37 -89.5t39.5 -93.5t38 -90q43 -102 88 -208h-81zM186 238h214l-122 304z" />
    <glyph glyph-name="B" unicode="B" horiz-adv-x="842" 
d="M600 369q35 -5 75.5 -15.5t75.5 -31.5t58.5 -53.5t23.5 -81.5q0 -35 -10 -62t-26 -46.5t-37 -33t-42 -22.5q-50 -20 -114 -23h-577v8h100v684h-100v8h528q59 -3 107 -20q20 -8 39 -19t34 -27.5t24.5 -38.5t9.5 -51q0 -30 -12 -54t-30 -43.5t-39 -33.5t-40 -23
t-32.5 -13.5t-15.5 -4.5v-3zM356 692v-318h11q53 1 94 18q18 7 35 17.5t30.5 26.5t21.5 37t8 49v22q0 55 -22.5 85t-49.5 44q-32 16 -72 19h-56zM404 8q52 3 92 22q17 8 34 21t30 32t21 44.5t8 59.5q0 44 -13.5 74.5t-33.5 50.5t-43.5 31t-44 16t-34.5 6t-15 1h-49v-358h48z
" />
    <glyph glyph-name="C" unicode="C" horiz-adv-x="637" 
d="M594 119q-20 -31 -46.5 -56.5t-58.5 -42.5q-26 -14 -57.5 -21t-71.5 -7q-39 0 -71 2t-59 8t-50.5 17t-45.5 29q-27 21 -49.5 53.5t-39 72t-25.5 84.5t-9 92t9 92t25.5 84.5t39 72t49.5 53.5q22 18 45.5 29t50.5 17t59 8t71 2h10q25 -1 43.5 -4.5t41.5 -12.5l3 -1
q17 -7 41.5 -10.5t47.5 -3.5q26 0 42 8.5t24.5 19t11 19.5t2.5 10h10v-338h-10q0 12 -4 30.5t-10.5 39t-16 41.5t-19.5 38q-17 26 -35 49.5t-44 49.5q-14 13 -26 23t-26 17.5t-32.5 11.5t-43.5 5h-10q-11 0 -17.5 -3t-17.5 -11q-22 -17 -34 -54.5t-18 -82t-7 -90.5t-1 -81
v-28v-27t0.5 -25.5t1.5 -30.5t3 -40q4 -40 15.5 -73.5t37.5 -59.5q23 -23 48.5 -33.5t49.5 -10.5q32 0 55 6t41 17q8 5 17.5 11t17.5 14q29 26 44 53.5t23 50.5q9 27 10 54h8v-5q0 -17 -4 -35t-9 -31q-12 -35 -30 -66z" />
    <glyph glyph-name="D" unicode="D" horiz-adv-x="770" 
d="M340 700q115 1 207 -35q39 -15 76 -40.5t66 -64t47 -92t18 -124.5q0 -70 -18 -122t-47.5 -89.5t-67 -61.5t-76.5 -39q-92 -34 -208 -32h-42h-226h-100v8h100v684h-100v8h100h226h45zM522 377q0 61 -8 107t-20.5 80t-29 56.5t-33.5 36.5q-40 33 -91 35h-45v-684h42
q52 4 92 39q17 15 34 37.5t30 56t21 79t8 104.5v53z" />
    <glyph glyph-name="E" unicode="E" horiz-adv-x="652" 
d="M569 92q20 28 31 52t16 45t5.5 40t0.5 37h9v-266h-62h-166h-84h-230h-89v8h89v684h-89v8h89h230h69h228v-233h-9q0 22 -1 40t-5.5 35t-13.5 35.5t-25 41.5q-18 26 -37 41t-40.5 22t-46 8.5t-51.5 1.5h-68v-328h43q18 0 33 1t28.5 5.5t24.5 13.5t22 25q17 25 27 50t10 55
h6h2v-308h-2h-6q0 29 -9.5 54t-27.5 51q-20 29 -46 37t-62 8h-43v-348h84q28 0 49 1.5t40 9t37 24.5t40 49z" />
    <glyph glyph-name="F" unicode="F" horiz-adv-x="638" 
d="M425 0h-336h-89v8h89v684h-89v8h89h230h81h228v-233h-9q0 22 -1 40t-5.5 35t-13.5 35.5t-25 41.5q-18 26 -37 41t-40.5 22t-46 8.5t-51.5 1.5h-80v-328h43q18 0 34 1t30 5.5t26 13.5t23 25q17 25 27 50t10 55h6h2v-308h-2h-6q0 29 -9.5 54t-27.5 51q-20 29 -48.5 37
t-64.5 8h-43v-347l106 -1v-8z" />
    <glyph glyph-name="G" unicode="G" horiz-adv-x="780" 
d="M783 8q1 -57 9 -101q3 -19 8.5 -37t13 -32.5t17.5 -23t24 -8.5q-59 0 -104.5 21.5t-78 56.5t-52.5 81t-28 95q-11 -23 -42 -36.5t-64 -20.5q-39 -9 -85 -11h-41q-39 0 -71 2t-59 8t-50.5 17t-45.5 29q-27 21 -49.5 53.5t-39 72t-25.5 84.5t-9 92t9 92t25.5 84.5t39 72
t49.5 53.5q22 18 45.5 29t50.5 17t59 8t71 2h36q34 0 59 -7t44 -14l32 -12q8 -3 14.5 -6.5t13.5 -6.5t16 -4.5t23 -1.5q32 0 49.5 8t26 17.5t10 17.5t1.5 9h8v-286h-8q0 20 -14 50.5t-30 59.5q-12 22 -31.5 48t-39.5 43q-17 14 -35.5 28t-42 25t-51.5 17.5t-62 6.5h-19
q-11 0 -17.5 -3t-17.5 -11q-22 -17 -34 -54.5t-18 -82t-7 -90.5t-1 -81v-56q0 -35 1 -81t7 -90.5t18 -82t34 -54.5q11 -8 17.5 -11t17.5 -3h41q44 6 79 35q15 12 29.5 30.5t26.5 45t19.5 61.5t8.5 80l-8 45q-8 18 -18.5 27.5t-20.5 14.5q-11 5 -24 6h-115v9h186
q61 -5 109 -43q21 -16 40.5 -41t35 -61.5t25 -86t9.5 -114.5z" />
    <glyph glyph-name="H" unicode="H" horiz-adv-x="843" 
d="M753 8h90v-8h-90v8zM843 700v-8h-90v8h90zM753 0h-284v8h62v352h-219v-352h62v-8h-373v8h90v684h-90v8h373v-8h-62v-323h219v323h-62v8h284v-700z" />
    <glyph glyph-name="I" unicode="I" horiz-adv-x="458" 
d="M342 8h100v-8h-430v8h101v684h-101v8h430v-8h-100v-684z" />
    <glyph glyph-name="J" unicode="J" horiz-adv-x="463" 
d="M347 165q-6 -59 -34 -105q-12 -20 -30.5 -38.5t-44.5 -33t-62 -23.5t-82 -9q-30 0 -54 4.5t-42 10t-29.5 11t-15.5 7.5l4 7q5 -3 19.5 -9t37.5 -6q31 0 54.5 16t32.5 39q6 16 9.5 44t5 56.5t2 52.5t0.5 32v471h-101v8h430v-8h-100v-527z" />
    <glyph glyph-name="K" unicode="K" 
d="M773 86q20 -29 35.5 -44.5t26.5 -23.5q12 -9 22 -10v-8h-108q-13 0 -36.5 1t-51.5 7t-57 19.5t-54 38.5q-21 21 -44 54t-47.5 72t-52 82t-58.5 84v-350h100v-8h-429v8h100v684h-100v8h429v-8h-100v-322l258 251q3 3 6 7q2 4 4 8.5t2 12.5q0 19 -13.5 31t-33.5 12h-15v8
h212v-8h-28q-3 0 -9 -3q-6 -2 -16.5 -7.5t-27.5 -14.5q-35 -19 -52 -33q-10 -8 -16 -14l-119 -120q28 -45 50 -80t41.5 -65.5t38 -59t39.5 -59.5t46 -67.5t58 -82.5z" />
    <glyph glyph-name="L" unicode="L" horiz-adv-x="634" 
d="M541 100q19 28 30.5 58t16.5 58t6.5 52.5t1.5 42.5h8v-311h-301h-218h-100v8h100v684h-100v8h100h319v-8h-101v-684h28q28 0 57 3.5t56.5 13.5t52 28t44.5 47z" />
    <glyph glyph-name="M" unicode="M" horiz-adv-x="1010" 
d="M910 692v-684h100v-8h-424v8h100v666l-239 -674h-9q-20 0 -44.5 33.5t-51.5 87t-56.5 120.5t-59.5 133.5t-60 126.5t-58 100v-545q0 -20 14 -34t34 -14h68v-8h-239v8h67q20 0 34 14t14 34v556q-9 11 -17.5 20t-16.5 15q-25 17 -46.5 26.5t-38.5 13.5q-19 4 -35 5v8h194
q27 -1 55 -7q24 -5 53 -17.5t57 -34.5q28 -25 52 -62t45 -79t38.5 -85t32 -80.5t26.5 -66t21 -39.5l167 471h323v-8h-100z" />
    <glyph glyph-name="N" unicode="N" horiz-adv-x="749" 
d="M774 700v-8h-53q-20 0 -33.5 -14t-13.5 -34v-644h-9q-23 0 -59 25t-79.5 64.5t-91.5 90.5t-94 104q-109 124 -232 282v-510q0 -20 13.5 -34t33.5 -14h53v-8h-208v8h52q20 0 34 14t14 34v517l-41 42q-23 22 -43.5 37t-36.5 24q-18 11 -34 16v8h216q22 -1 48 -9
q22 -7 50 -20.5t58 -39.5t65.5 -60.5t71.5 -73t70.5 -78t63 -74t48.5 -62t28 -42.5v403q0 20 -13.5 34t-33.5 14h-53v8h109h100z" />
    <glyph glyph-name="O" unicode="O" horiz-adv-x="764" 
d="M630 652q27 -21 49.5 -53.5t39 -72t25.5 -84.5t9 -92t-9 -92t-25.5 -84.5t-39 -72t-49.5 -53.5q-23 -18 -46 -29t-50.5 -17t-60 -8t-72.5 -2h-41q-39 0 -71 2t-59 8t-50.5 17t-45.5 29q-27 21 -49.5 53.5t-39 72t-25.5 84.5t-9 92t9 92t25.5 84.5t39 72t49.5 53.5
q22 18 45.5 29t50.5 17t59 8t71 2h44q39 0 71 -2t59 -8t50 -17t46 -29zM505 378q0 35 -2 81t-9 90.5t-20 82t-35 54.5q-11 8 -17.5 11t-17.5 3h-44q-11 0 -17.5 -3t-17.5 -11q-22 -17 -35.5 -54.5t-20.5 -82t-9 -90.5t-2 -81v-56q0 -35 2 -81t9 -90.5t20.5 -82t35.5 -54.5
q11 -8 17.5 -11t17.5 -3h44q11 0 17.5 3t17.5 11q22 17 35 54.5t20 82t9 90.5t2 81v28v28z" />
    <glyph glyph-name="P" unicode="P" horiz-adv-x="726" 
d="M332 292v-284h100v-8h-419v8h100v684h-100v8h474q66 -3 119 -24q22 -9 44 -22.5t38.5 -33.5t27 -47t10.5 -62q0 -71 -24.5 -114t-68.5 -66t-107 -31t-139 -8h-55zM332 300h5q45 3 81 21q15 8 29.5 20.5t26 30.5t18.5 42.5t7 56.5v40q0 34 -5 59.5t-13.5 44.5t-19.5 32
t-22 22q-26 20 -60 23h-47v-392z" />
    <glyph glyph-name="Q" unicode="Q" horiz-adv-x="764" 
d="M765 69q24 -27 53.5 -58.5t66.5 -59t81 -45.5t96 -18q12 0 24.5 1.5t26.5 3.5q-16 -27 -45 -47q-25 -17 -67 -31.5t-106 -14.5q-42 0 -85 22.5t-83 56t-75 72.5t-61 72q-37 -20 -81.5 -25.5t-108.5 -5.5h-41q-39 0 -71 2t-59 8t-50.5 17t-45.5 29q-27 21 -49.5 53.5
t-39 72t-25.5 84.5t-9 92t9 92t25.5 84.5t39 72t49.5 53.5q22 18 45.5 29t50.5 17t59 8t71 2h44q39 0 71 -2t59 -8t50 -17t46 -29q27 -21 49.5 -53.5t39 -72t25.5 -84.5t9 -92q0 -55 -12.5 -110.5t-37.5 -101.5q10 -11 19.5 -21t17.5 -20zM449 309q30 0 63.5 -16t66.5 -40.5
t64 -54t57 -57.5q-18 33 -37.5 64t-43.5 58t-53 48t-67 35v32q0 35 -1 81t-7 90.5t-18 82t-34 54.5q-11 8 -17.5 11t-17.5 3h-44q-11 0 -17.5 -3t-17.5 -11q-22 -17 -34 -54.5t-18 -82t-7 -90.5t-1 -81v-56q0 -28 0.5 -62.5t3.5 -69.5q6 27 23 48q15 19 37 35
q19 14 48.5 24.5t71.5 11.5zM439 14q23 18 35.5 58.5t17.5 88.5q-12 15 -21 29.5t-22.5 26t-34 19t-55.5 7.5q-30 0 -47 -12.5t-26 -28t-11.5 -29.5t-2.5 -18q6 -46 18 -85t35 -56q11 -8 17.5 -11t17.5 -3h44q11 0 17.5 3t17.5 11z" />
    <glyph glyph-name="R" unicode="R" horiz-adv-x="835" 
d="M621 288q28 -32 59.5 -79.5t61.5 -92.5t54.5 -77t38.5 -32v-7h-178q-53 0 -91.5 28.5t-70 71.5t-58.5 92t-57 91q-32 45 -42 63.5t-17 19.5v-358h100v-8h-421v8h101v684h-101v8h524q62 -5 111 -24q21 -9 41 -21.5t36 -31t25.5 -43t9.5 -56.5q0 -56 -26.5 -87.5t-61.5 -47
t-71 -19.5t-54 -4h-13l-130 -1q48 -1 92 -9q38 -8 76.5 -23.5t61.5 -44.5zM321 691v-317h61q38 0 63.5 5.5t41 20t22 39t6.5 63.5v22q0 55 -25 88.5t-55 50.5q-35 20 -79 28h-35z" />
    <glyph glyph-name="S" unicode="S" horiz-adv-x="594" 
d="M402 450q96 -47 137.5 -105.5t41.5 -131.5q0 -50 -20 -90.5t-55.5 -70t-82.5 -45.5t-101 -16h-13q-48 0 -94.5 17.5t-94.5 45.5q-3 2 -9 2q-11 0 -21 -8.5t-19 -19.5q-11 -12 -20 -28h-8l-19 285h8q3 -19 8 -41q5 -19 13.5 -43t24.5 -50q17 -29 39.5 -61t52.5 -50
q47 -28 96 -37q15 -3 33 -3q20 0 41.5 2t38.5 9q24 11 36 25.5t12 49.5q0 25 -22 50t-58 50.5t-82 52.5t-95 56q-81 49 -117.5 108t-36.5 131q0 85 67.5 127.5t198.5 42.5q45 0 90 -17t90 -40q6 -2 8 -2q11 0 21.5 8t19.5 19q11 12 20 28h8l23 -217h-8q-3 6 -9 17
q-5 10 -15.5 26.5t-26.5 42.5q-4 6 -11.5 16t-17.5 21t-21.5 22t-21.5 20q-32 19 -70 33.5t-80 15.5q-13 0 -29 -3.5t-29.5 -12.5t-23 -23.5t-9.5 -35.5q0 -35 49.5 -76t162.5 -96z" />
    <glyph glyph-name="T" unicode="T" horiz-adv-x="624" 
d="M625 700v-261h-9q0 45 -16 85t-48 88q-18 26 -35 41.5t-33 24t-31 11t-29 2.5v-683h100v-8h-420v8h100v683q-14 0 -31 -2.5t-35 -10.5t-37 -23t-36 -41q-32 -48 -43.5 -88t-11.5 -85h-10v259h625z" />
    <glyph glyph-name="U" unicode="U" horiz-adv-x="732" 
d="M633 644q0 20 -14 34t-34 14h-52v8h208v-8h-52q-20 0 -34 -14t-14 -34v-472q0 -33 -18 -70t-68 -71q-38 -26 -84 -32t-91 -6t-89 6.5t-86 24.5q-21 10 -39.5 23t-32.5 32q-33 42 -33 103v510h-100v8h392v-8h-63v-505q0 -32 6.5 -58t20.5 -42q21 -25 50 -41.5t66 -16.5
q27 0 51 7q21 6 41 20.5t35 33t24 40t9 42.5z" />
    <glyph glyph-name="V" unicode="V" horiz-adv-x="743" 
d="M743 700v-8h-44q-20 0 -37.5 -15t-22.5 -33l-154 -644h-99q-12 23 -33.5 67.5t-48.5 101t-57 119.5t-60 123.5t-58 113.5t-50 88q-18 29 -34 45t-27 24q-13 9 -24 10v8h172q15 0 30.5 -1.5t32 -9t35.5 -22t42 -41.5q19 -22 40 -57.5t43 -76.5t43.5 -84t40 -79.5t34 -64
t24.5 -36.5l99 416q1 4 1 12q0 16 -9.5 26t-26.5 10h-52v8h200z" />
    <glyph glyph-name="W" unicode="W" horiz-adv-x="1080" 
d="M1080 700v-8h-44q-20 0 -37.5 -15t-22.5 -33l-154 -644h-81q-14 22 -34 65t-44.5 98.5t-52 118.5t-55.5 123l-116 -405h-70q-14 22 -35 66.5t-47 101.5t-55 121t-58.5 125t-57.5 114t-52 89q-19 28 -33 42.5t-24 22.5q-11 8 -19 10v8h95q69 0 121 -15.5t81 -58.5
q16 -24 35 -59t39 -74.5t40 -80.5t37.5 -77.5t32 -65t24.5 -42.5l57 189q-29 63 -55.5 111t-49.5 86q-18 29 -34 45t-27 24q-13 9 -24 10v8h73q36 0 66.5 -2t58.5 -10.5t53.5 -26t51.5 -48.5q18 -22 38 -56t39.5 -72.5t39 -78t36.5 -74t31 -60t23 -34.5l97 406q2 10 2 14
q0 17 -11.5 25.5t-25.5 8.5h-52v8h200z" />
    <glyph glyph-name="X" unicode="X" horiz-adv-x="731" 
d="M664 8h78v-8h-404v8h73l-148 296l-113 -225q-4 -7 -5 -16q-2 -8 -1 -17t6 -18q3 -8 9.5 -11.5t14.5 -5.5q8 -3 18 -3h34v-8h-231v8h20q9 0 20 2q9 2 20 4.5t24 8.5q23 10 36.5 23.5t20.5 22.5l123 244l-188 379h-71v8h404v-8h-80l132 -265l100 194q1 1 3 5.5t3.5 12t1 16
t-4.5 17.5q-3 7 -9.5 11t-13.5 6q-8 3 -17 3h-15v8h192v-8h-12q-7 0 -16 -2q-8 -2 -18.5 -4.5t-21.5 -7.5q-16 -8 -27.5 -17.5t-19.5 -18.5q-9 -11 -15 -21l-106 -203z" />
    <glyph glyph-name="Y" unicode="Y" horiz-adv-x="756" 
d="M756 702v-8h-12q-9 0 -20 -2q-9 -2 -20.5 -4.5t-22.5 -7.5q-16 -7 -26.5 -16.5t-16.5 -18.5q-8 -11 -12 -22l-126 -301v-314h99v-8h-428v8h100v315l-227 368v9h51q38 0 70 -3t60.5 -14.5t54 -32.5t51.5 -57l162 -260l123 293q3 7 3 24q0 6 -1 12.5t-4 12.5q-3 7 -9.5 11
t-12.5 6q-7 2 -15 2h-34v8h213z" />
    <glyph glyph-name="Z" unicode="Z" horiz-adv-x="617" 
d="M600 263l-3 -263h-597v8l340 684h-93q-28 0 -51.5 -1t-44 -6.5t-38.5 -17t-35 -31.5q-14 -16 -21 -38.5t-11 -43.5q-4 -25 -5 -50h-9l15 196h546v-8l-340 -684h116q28 0 51 1.5t44 9.5t41 23.5t41 44.5q15 21 23 41t12 41t5.5 44t4.5 50h9z" />
    <glyph glyph-name="a" unicode="a" horiz-adv-x="569" 
d="M569 8v-8h-258v62l-7 -4q-37 -21 -82 -41.5t-89 -20.5h-5q-21 0 -41 8t-36 23t-25.5 37t-9.5 50q0 16 5 31t13 28q6 10 19 22.5t29 24.5t33.5 23.5t34.5 20.5q38 22 80.5 43t80.5 41v25q0 26 -3 52t-14 47t-31.5 34t-54.5 13q-12 0 -24.5 -1.5t-23.5 -6.5
q-9 -4 -16.5 -12.5t-7.5 -19.5q0 -15 11.5 -24t26 -18t26 -21t11.5 -31q0 -32 -21.5 -50t-49.5 -18q-17 0 -33.5 6.5t-30 18.5t-22 28t-8.5 35q0 41 24.5 66t60.5 39t76.5 18.5t72.5 4.5q37 0 75 -7t69 -24t51 -47.5t20 -76.5v-370h74zM275 53l18 9t18 10v266
q-22 -10 -40 -28.5t-30.5 -41.5t-19.5 -49.5t-7 -52.5v-62q0 -19 15 -36.5t33 -17.5q7 0 13 3z" />
    <glyph glyph-name="b" unicode="b" horiz-adv-x="650" 
d="M631 264q0 -33 -5 -66.5t-17.5 -65t-35 -58.5t-57.5 -48q-31 -18 -64 -26t-64 -8q-25 0 -50 5q-7 1 -14 5q-6 3 -13 7t-12 10q-13 13 -19.5 21.5t-11.5 17.5v-58h-259v8h75v684h-75v8h75q37 2 71 5q29 2 60.5 6t52.5 10v-263q5 8 12.5 17.5t18.5 20.5q17 17 42 26.5
t60 9.5q28 0 57 -7.5t58 -24.5q35 -21 57.5 -48t35 -58t17.5 -64.5t5 -65.5zM397 65q18 28 21.5 80.5t3.5 117.5t-3 120t-21 83q-10 15 -25.5 27.5t-32.5 12.5q-9 0 -16 -4t-19 -14q-11 -9 -17 -21.5t-11 -26.5q-6 -17 -7.5 -36t-1.5 -39v-223q0 -35 9 -66q3 -12 8.5 -24
t13.5 -20q11 -10 15.5 -14t13.5 -4q12 0 23 5.5t20 14t15.5 17t10.5 14.5z" />
    <glyph glyph-name="c" unicode="c" horiz-adv-x="538" 
d="M522 176q-5 -26 -14 -52.5t-25 -48.5l-14 -19q-27 -32 -66 -48t-81 -16q-23 0 -54.5 3t-65.5 12.5t-67.5 27.5t-60 48t-43 74t-16.5 105q0 56 15 98t39 72t54 49.5t59 30.5t55 15.5t43 4.5q107 0 168.5 -34t61.5 -101q0 -19 -7.5 -35.5t-20.5 -29t-29 -19.5t-34 -7t-35 7
t-29.5 19.5t-20 29t-7.5 35.5q0 18 7.5 35.5t21.5 30.5l3 4q7 6 16 16t9 18q0 9 -7 13.5t-17 6.5t-20.5 2.5t-17.5 0.5q-30 0 -49.5 -15t-31 -46.5t-16 -81t-4.5 -119.5q0 -12 0.5 -30t0.5 -23q0 -2 1 -15.5t5.5 -33t12.5 -41.5t22 -41.5t34 -33t49 -15.5h11q58 0 99 41.5
t58 106.5l8 -1v0z" />
    <glyph glyph-name="d" unicode="d" horiz-adv-x="635" 
d="M635 8v-8h-259v58q-5 -9 -11.5 -17.5t-19.5 -21.5q-6 -6 -12.5 -10t-12.5 -7q-7 -4 -14 -5q-25 -5 -50 -5q-31 0 -64 8t-64 26q-35 21 -57.5 48t-35.5 58.5t-17.5 65t-4.5 66.5q0 32 4.5 65.5t17.5 64.5t35.5 58t57.5 48q29 17 58 24.5t57 7.5q35 0 60 -9.5t42 -26.5
q11 -11 18.5 -20.5t12.5 -17.5v234h-75v8h75q37 2 71 5q29 2 60.5 6t52.5 10v-713h75zM376 365q0 20 -1.5 39t-7.5 36q-5 14 -11 26.5t-17 21.5q-11 10 -18.5 14t-16.5 4q-17 0 -32.5 -12.5t-25.5 -27.5q-18 -28 -21 -83t-3 -120t3.5 -117.5t21.5 -80.5q4 -6 10.5 -14.5
t15.5 -17t20 -14t23 -5.5q9 0 13.5 4t15.5 14q8 8 13.5 20t8.5 24q9 31 9 66v223z" />
    <glyph glyph-name="e" unicode="e" horiz-adv-x="595" 
d="M234 249q0 -39 4 -79t19 -71.5t43.5 -51.5t78.5 -20q36 0 63.5 12.5t48 33.5t35 48.5t25.5 57.5l10 -1q-14 -40 -30.5 -74t-43.5 -59t-67 -39t-99 -14q-27 0 -48 1t-42.5 6.5t-45.5 16.5t-56 32q-42 26 -71.5 81t-29.5 133q0 61 16.5 105t43.5 74t60 48t66.5 27.5
t63 12.5t49.5 3q42 0 87 -8t81.5 -28t60 -54.5t23.5 -88.5q0 -32 -18.5 -50t-46 -27t-59.5 -11t-60 -2h-161v-14zM306 522q-25 -1 -39 -20t-21.5 -48t-9.5 -63.5t-2 -65.5v-53h88q5 0 20.5 2t26.5 12q6 6 9.5 15.5t5 19t2 17t0.5 10.5q0 54 -6.5 88t-17.5 53t-24.5 26
t-27.5 7h-4z" />
    <glyph glyph-name="f" unicode="f" horiz-adv-x="374" 
d="M374 551q-13 0 -36 1.5t-45 9.5t-38.5 24.5t-16.5 46.5q0 15 8 27.5t8 24.5q0 6 -6.5 9.5t-16.5 3.5h-5q-20 0 -29 -12.5t-9 -31.5q0 -36 13 -61.5t35.5 -42.5t52.5 -25t65 -8v-8h-88v-501h75v-8h-334v8h76v501h-76v8h76q0 61 16 98.5t42 58t58.5 27.5t65.5 7
q72 0 115.5 -39.5t43.5 -117.5h-50z" />
    <glyph glyph-name="g" unicode="g" horiz-adv-x="634" 
d="M651 581q0 -24 -17 -37.5t-42.5 -21.5t-54.5 -13.5t-54 -13.5l12 -5q36 -18 62.5 -54t26.5 -87q0 -42 -15.5 -71.5t-41 -49.5t-57 -31.5t-63.5 -17.5t-61.5 -7.5t-49.5 -1.5q-19 0 -43.5 -0.5t-46 -4.5t-36 -13t-14.5 -26q0 -14 8.5 -25.5t41.5 -11.5q29 0 56 5.5
t55.5 12.5t61 12.5t73.5 5.5q33 0 60.5 -6.5t47.5 -23t31 -44.5t11 -71q0 -50 -26 -81.5t-66 -49t-88 -23.5t-93 -6q-38 0 -82.5 2.5t-83 11t-64.5 24.5t-26 42q0 25 12.5 41.5t27.5 16.5q-25 9 -39.5 21t-22 25t-9.5 26t-2 25q0 38 18.5 61.5t45.5 37t58 18.5t57 7
q-23 4 -53 15t-57 30.5t-45.5 50t-18.5 74.5q0 54 26 88.5t66 55t87.5 28t91.5 7.5q38 0 76 -5.5t76 -20.5q9 18 22 39t29.5 39.5t37 31t43.5 12.5q7 0 15.5 -1.5t16.5 -6t13.5 -13t5.5 -22.5zM330 -172q89 0 128 24.5t39 67.5q0 20 -15.5 32.5t-50.5 12.5q-23 0 -42.5 -5.5
t-39.5 -12t-42.5 -12t-52.5 -5.5h-31q-4 0 -4 1q-9 -1 -16 -4q-6 -2 -10.5 -6.5t-4.5 -12.5q0 -43 33.5 -61.5t108.5 -18.5zM373 201q19 17 22 57t3 91q0 25 -0.5 49t-2.5 44t-7.5 35t-14.5 23q-20 16 -31.5 18.5t-24.5 2.5h-4q-28 0 -44 -11t-24.5 -32.5t-11 -53.5
t-2.5 -75q0 -36 1.5 -65t7 -50t16.5 -34t30 -17q4 -1 9 -2t10.5 -1h13.5q6 0 11 0.5t10 1.5t10 3t9.5 5t13.5 11z" />
    <glyph glyph-name="h" unicode="h" horiz-adv-x="669" 
d="M593 8h76v-8h-308v8h38v346q0 39 -2.5 61t-7.5 39q-4 12 -12 17.5t-19 5.5q-15 0 -28 -7.5t-24 -19t-20 -25t-15 -26.5q-4 -8 -8.5 -34t-4.5 -61v-296h38v-8h-296v8h75v684h-75v8h75q37 2 71 5q29 2 60.5 6t51.5 10v-325q6 17 15 30.5t20 27.5q20 23 54 38.5t65 20.5
q2 0 9.5 0.5t16 1t17.5 1t14 0.5q11 0 25.5 -2t25.5 -7q15 -5 27 -15.5t20 -23.5q17 -26 21.5 -55t4.5 -59v-346z" />
    <glyph glyph-name="i" unicode="i" horiz-adv-x="369" 
d="M285 8v530q-21 -6 -56 -10t-74.5 -6.5t-78.5 -3.5t-67 -1v-8h76v-501h-76v-8h351v8h-75zM299 644q0 -16 -9 -30t-24.5 -24.5t-36 -16.5t-43.5 -6t-43.5 6t-36 16.5t-24.5 24.5t-9 30t9 30t24.5 24.5t36 16.5t43.5 6t43.5 -6t36 -16.5t24.5 -24.5t9 -30z" />
    <glyph glyph-name="j" unicode="j" horiz-adv-x="349" 
d="M192 567q-23 0 -43.5 6t-36 16.5t-24.5 24.5t-9 30t9 30t24.5 24.5t36 16.5t43.5 6t43.5 -6t36 -16.5t24.5 -24.5t9 -30t-9 -30t-24.5 -24.5t-36 -16.5t-43.5 -6zM15 517q28 0 68 1t80 3.5t75.5 6.5t56.5 10v-450q0 -23 -0.5 -45t-4.5 -44q-2 -11 -5.5 -22t-10.5 -20
q-14 -20 -33 -32q-19 -13 -44 -18t-64 -5q-19 0 -37 5.5t-35 13.5q-32 16 -53 48q-12 19 -12 43q0 30 21 53q24 22 53 22t53 -22q23 -23 23 -53q0 -31 -22 -53q-7 -7 -16 -14t-9 -18q0 -10 14 -13q3 -1 6.5 -1h6.5q15 0 29 5.5t25 17.5q14 17 19.5 38.5t5.5 43.5
q0 23 -8 43.5t-25 35.5q-16 15 -37.5 21.5t-43.5 6.5v384h-76v8z" />
    <glyph glyph-name="k" unicode="k" horiz-adv-x="679" 
d="M604 83q18 -24 31.5 -39t23.5 -23q11 -10 20 -14v-7h-94q-12 0 -31.5 1t-42 6t-46 16.5t-43.5 31.5q-18 18 -34 41.5t-33 51.5t-37 60t-46 67l-3 -4v-263h75v-8h-334v8h75v684h-75v8h75q37 2 71 5q29 2 60.5 6t51.5 10v-438l185 157q2 2 5.5 9.5t3.5 18.5q0 15 -6.5 23.5
t-15 12t-16 4.5t-9.5 1h-14v8h211v-8h-27q-18 0 -37 -9t-35.5 -21t-30.5 -24l-21 -18l-57 -51q34 -55 54 -88t38 -61.5t42 -62.5t66 -91z" />
    <glyph glyph-name="l" unicode="l" horiz-adv-x="374" 
d="M359 8v-8h-352v8h76v684h-76v8q28 0 67.5 1t79 3.5t74.5 6.5t56 10v-713h75z" />
    <glyph glyph-name="m" unicode="m" horiz-adv-x="990" 
d="M600 462l3.5 6t9.5 14t13 16t15 14q24 20 50.5 29t56.5 9t62 -5t58 -22t40 -47q5 -11 8.5 -22.5t3.5 -23.5v-294q0 -59 13.5 -93.5t46.5 -34.5v-8h-88q-49 0 -82 11.5t-53 32t-28.5 47.5t-8.5 58v278q0 20 -4.5 40t-15.5 35q-6 7 -15.5 9.5t-18.5 2.5t-17 -5.5t-15 -13.5
q-9 -9 -15.5 -30.5t-11 -46t-6.5 -47.5t-2 -35v-200q0 -59 13.5 -93.5t46.5 -34.5v-8h-88q-49 0 -82 11.5t-53 32t-28.5 47.5t-8.5 58v278q0 20 -4.5 40t-15.5 35q-6 7 -15.5 9.5t-18.5 2.5t-17 -5.5t-15 -13.5q-9 -9 -15 -25t-10.5 -34.5t-6.5 -36.5t-2 -30v-361h75v-8
h-354v8h75v509h-76v8q28 0 68 1t80 3.5t75.5 6.5t56.5 10v-84q8 17 17 28t24 22q24 20 50.5 29t56.5 9t62 -5t58 -22t40 -47q2 -5 4 -10.5t4 -10.5q1 2 4 5q1 1 1 2z" />
    <glyph glyph-name="n" unicode="n" horiz-adv-x="674" 
d="M663 0h-88q-49 0 -82.5 11.5t-54.5 32t-30 47.5t-9 58v278q0 20 -4.5 40t-15.5 35q-6 7 -15.5 9.5t-18.5 2.5t-17 -5.5t-15 -13.5q-9 -9 -15 -25t-10.5 -34.5t-6.5 -36.5t-2 -30v-361h75v-8h-354v8h75v501h-76v8q28 0 68 1t80 3.5t75.5 6.5t56.5 10v-76q8 17 17 28t24 22
q24 20 50.5 29t56.5 9t64 -5t60 -22t40 -47q5 -11 8.5 -22.5t3.5 -23.5v-294q0 -59 13.5 -93.5t46.5 -34.5v-8z" />
    <glyph glyph-name="o" unicode="o" horiz-adv-x="638" 
d="M511 476q42 -27 71.5 -81.5t29.5 -132.5t-29.5 -133t-71.5 -81q-32 -21 -54.5 -32t-42 -16.5t-39 -6.5t-46.5 -1h-10q-27 0 -47.5 1t-41.5 6.5t-44.5 16.5t-55.5 32q-42 26 -71.5 81t-29.5 133t29.5 132.5t71.5 81.5q32 21 55 32t42.5 16.5t39 6.5t46.5 1h16
q27 0 46.5 -1t39 -6.5t42 -16.5t54.5 -32zM377 30q9 13 15 36.5t9.5 54t4.5 66.5t1 75t-1.5 75t-5 66.5t-10.5 53.5t-18 35q-22 24 -33.5 28t-17.5 4t-18 -4t-33 -28q-11 -12 -18 -35t-11 -53.5t-5 -66.5t-1 -75t1 -75t5 -66.5t11 -53.5t18 -36q14 -15 28.5 -23t22.5 -8h8
q27 0 48 30z" />
    <glyph glyph-name="p" unicode="p" horiz-adv-x="643" 
d="M517 499q35 -21 57.5 -48t35 -58t17.5 -64.5t5 -65.5q0 -33 -5 -66.5t-17.5 -65t-35 -58.5t-57.5 -48q-31 -18 -64 -26t-64 -8q-25 0 -50 5q-10 1 -19 5q-8 3 -16.5 7t-13.5 10q-13 13 -19.5 21.5t-11.5 17.5v-225h75v-8h-334v8h76v684h-76v8h76q37 2 71 5q29 2 60 6
t52 10v-88q5 8 12.5 17.5t18.5 20.5q17 17 47 26.5t65 9.5q28 0 57 -7.5t58 -24.5zM398 64q18 28 21.5 80.5t3.5 117.5t-3 120t-21 83q-10 15 -25.5 27.5t-32.5 12.5q-9 0 -20.5 -4t-24.5 -14q-11 -9 -17 -21.5t-11 -26.5q-6 -17 -7.5 -36t-1.5 -39v-223q0 -35 9 -66
q3 -12 8.5 -24t13.5 -20q19 -18 39 -18q12 0 23 5.5t20 14t15.5 17t10.5 14.5z" />
    <glyph glyph-name="q" unicode="q" horiz-adv-x="645" 
d="M128 499q29 17 58 24.5t57 7.5q35 0 65 -9.5t47 -26.5q11 -11 18.5 -20.5t12.5 -17.5v81q20 -6 51.5 -10t60.5 -6q34 -3 71 -5h76v-8h-76v-677h76v-8h-334v8h75v225q-5 -9 -11.5 -17.5t-19.5 -21.5q-6 -6 -14 -10t-16 -7q-9 -4 -19 -5q-25 -5 -50 -5q-31 0 -64 8t-64 26
q-35 21 -57.5 48t-35.5 58.5t-17.5 65t-4.5 66.5q0 32 4.5 65.5t17.5 64.5t35.5 58t57.5 48zM247 64q4 -6 10.5 -14.5t15.5 -17t20 -14t23 -5.5q20 0 39 18q8 8 13.5 20t8.5 24q9 31 9 66v223q0 20 -1.5 39t-7.5 36q-5 14 -11 26.5t-17 21.5q-13 10 -24.5 14t-20.5 4
q-17 0 -32.5 -12.5t-25.5 -27.5q-18 -28 -21 -83t-3 -120t3.5 -117.5t21.5 -80.5z" />
    <glyph glyph-name="r" unicode="r" horiz-adv-x="491" 
d="M369 505q13 0 32 -3.5t36 -14.5t29 -32t12 -55q0 -30 -9.5 -52t-24 -36.5t-32 -21.5t-32.5 -7q-35 0 -48.5 21t-13.5 61q0 14 3.5 27.5t8.5 24.5t9 19.5t4 13.5q0 27 -14 27q-20 0 -32 -17l-9 -13q-11 -15 -13.5 -54.5t-2.5 -93.5v-291h75v-8h-347v8h76v501h-76v8
q28 0 66.5 1t77.5 3.5t73 6.5t55 10v-110q3 10 8 20t13 19l4 3q22 21 38.5 28t33.5 7z" />
    <glyph glyph-name="s" unicode="s" horiz-adv-x="514" 
d="M397 304q13 -9 29 -23t30 -32t23 -39.5t9 -46.5q0 -39 -17 -71t-48 -54.5t-73 -35t-93 -12.5q-39 0 -78 13t-77 33q-6 2 -8 2q-15 0 -26 -6t-19 -13q-9 -9 -15 -19h-11v234h12q3 -23 9 -46q5 -20 13 -42.5t20 -42.5q15 -25 30.5 -44t34.5 -29q23 -13 51 -19.5t55 -6.5
q19 0 38.5 1t35.5 5.5t26.5 12.5t10.5 23q0 24 -23.5 44.5t-58 40t-74.5 41t-74 48.5q-23 18 -40.5 34.5t-30 34t-19 37.5t-6.5 46q0 41 17 70.5t43.5 48.5t57.5 28t59 9q24 0 41 -2.5t33.5 -8.5t35.5 -15t48 -22q2 -1 7 -1q14 0 24.5 6t16.5 14q7 9 12 20h10l22 -189h-11
q-3 12 -9 27q-5 13 -14 29.5t-23 35.5q-7 9 -22.5 25t-34.5 28q-7 4 -18.5 11t-26.5 13.5t-32.5 11t-36.5 4.5q-10 0 -22.5 -1t-23 -4.5t-17.5 -10t-7 -17.5q0 -35 22 -54t57 -37q39 -20 81.5 -42.5t74.5 -44.5z" />
    <glyph glyph-name="t" unicode="t" horiz-adv-x="356" 
d="M251 150q0 -42 10 -69t26 -43.5t34 -23t35 -6.5v-8h-112q-49 0 -83 7t-55 24t-30 45.5t-9 72.5v21v339h-75v8h32q42 0 81.5 21t69.5 52t48.5 65.5t18.5 60.5h9v-199h88v-8h-88v-359v0z" />
    <glyph glyph-name="u" unicode="u" horiz-adv-x="649" 
d="M649 8v-8h-259v87q-8 -16 -17 -27t-23 -22q-24 -20 -50.5 -29t-56.5 -9t-61.5 5t-57.5 22t-40 47q-5 11 -8.5 22.5t-3.5 23.5v261q0 57 -12.5 92.5t-44.5 35.5v8h85q49 0 81.5 -12t52 -32t27.5 -47t8 -58v-245q0 -20 4.5 -40t15.5 -35q6 -7 16.5 -9.5t19.5 -2.5t17 5.5
t15 13.5t13 21.5t10 29t6.5 31.5t3.5 30v342h-75v8h75q37 2 71 5q29 2 60.5 6t52.5 10v-530h75z" />
    <glyph glyph-name="v" unicode="v" horiz-adv-x="590" 
d="M603 517v-8h-13q-20 0 -32.5 -3t-23.5 -10q-17 -11 -25 -27.5t-12 -28.5l-108 -440h-146q-53 142 -101 254q-20 48 -41.5 93.5t-41 81.5t-36 58t-27.5 22h-7v8h31q57 0 97 -5t69.5 -18t49.5 -34.5t36 -54.5l130 -307l85 340q5 22 5 30q0 11 -3 16t-5 9q-6 11 -17.5 13.5
t-20.5 2.5h-20v8h177z" />
    <glyph glyph-name="w" unicode="w" horiz-adv-x="849" 
d="M850 517v-8h-29q-10 0 -21 -2t-22 -9q-17 -11 -24 -25t-10 -33l-78 -440h-135q-25 63 -45 118q-9 23 -17.5 46.5t-16 44.5t-13 37.5l-8.5 25.5l-71 -272h-136q-48 142 -93 254q-19 48 -39 93.5t-39 81.5t-36 58t-29 22h-7v8h20q57 0 96.5 -4.5t67.5 -16t47 -32t34 -52.5
l127 -314l52 198q-8 16 -20 51.5t-27 71.5t-33.5 63t-40.5 27h-9v8h13q58 0 100 -5.5t71.5 -18.5t49.5 -34.5t34 -53.5l111 -296l60 329q1 5 1 9.5v9.5q0 18 -5 28.5t-12 15.5t-14 6.5t-11 1.5h-20v8h177z" />
    <glyph glyph-name="x" unicode="x" horiz-adv-x="569" 
d="M529 6h40v-6h-326v6h49l-97 194l-81 -139q-3 -6 -5 -12q-2 -5 -2 -11.5t4 -13.5q5 -11 15.5 -14.5t14.5 -3.5h39v-6h-205v6h50q7 0 16 2.5t26 13.5q15 11 23.5 22.5t13.5 18.5l86 148l-149 298h-48v8h340v-8h-55l86 -171l61 117q2 2 6.5 14t1.5 26q-2 7 -7 10.5t-22 3.5
h-29v8h167v-8h-16q-12 0 -27.5 -2.5t-24.5 -8.5q-11 -6 -18 -14t-17 -25l-70 -132z" />
    <glyph glyph-name="y" unicode="y" horiz-adv-x="597" 
d="M607 517v-8h-13q-26 0 -42 -6.5t-26 -17t-15.5 -22.5t-9.5 -23l-214 -540q-11 -26 -29 -46t-39 -33.5t-43 -20.5t-40 -7q-17 0 -33.5 6.5t-29.5 18.5t-21 28.5t-8 36.5q0 19 7.5 36t20.5 29.5t30 20t36 7.5q25 0 46 -12.5t32 -36.5l17 -37q8 -14 17 -14q7 0 14 8.5
t12 16.5l39 99q-8 15 -23.5 44.5t-36 68t-44.5 83t-49 88.5t-49.5 84.5t-46 72t-39 50t-27.5 18.5h-7v8h31q57 0 97.5 -1.5t70 -10.5t51 -27t39.5 -51l120 -219l89 230q4 10 4.5 17.5t0.5 12.5q0 14 -5 22.5t-12 12.5t-15 5t-14 1h-20v8h177z" />
    <glyph glyph-name="z" unicode="z" horiz-adv-x="546" 
d="M507 196v-196h-493v6l301 503h-53q-54 0 -98 -4.5t-77 -34.5q-12 -12 -19.5 -28t-12.5 -31q-5 -18 -7 -36h-9l20 142h461v-6l-301 -503h74q26 0 48 1t41.5 7t38 17.5t39.5 32.5q14 15 21 30t10 30.5t4 32.5t3 37h9z" />
    <glyph glyph-name="braceright" unicode="}" 
d="M2 628v-8h-13q-20 0 -32.5 -3t-23.5 -10q-17 -11 -25 -27.5t-12 -28.5l-108 -440h-146l-170 348q-17 37 -17 72q0 41 28 69t92 28h87v-10q-16 0 -21.5 -10t-5.5 -24q0 -11 2.5 -23t5.5 -22q4 -11 8 -23l150 -307l85 340q5 22 5 30q0 11 -3 16t-5 9q-6 11 -17.5 13.5
t-20.5 2.5h-20v8h177z" />
    <glyph glyph-name="Adieresis" unicode="&#xc4;" horiz-adv-x="735" 
d="M731 0h-75q-55 0 -93.5 16.5t-67 46.5t-49.5 72.5t-42 94.5h-221l-52 -183q0 -2 -0.5 -4.5t-0.5 -4.5q0 -25 26 -30h53v-8h-209v8h57q19 0 36.5 13t25.5 33l196 646h113q9 -7 19 -22.5t20 -36t19.5 -44t18.5 -45.5q15 -36 31.5 -76.5t33.5 -81.5l34 -82t33 -78
q37 -87 74 -173zM186 238h214l-122 304zM197 814q0 29 19.5 48.5t47.5 19.5q29 0 49 -19.5t20 -48.5t-20 -48.5t-49 -19.5q-28 0 -47.5 19.5t-19.5 48.5zM420 814q0 29 20 48.5t49 19.5q28 0 47.5 -19.5t19.5 -48.5t-19.5 -48.5t-47.5 -19.5q-29 0 -49 19.5t-20 48.5z" />
    <glyph glyph-name="Idieresis" unicode="&#xcf;" horiz-adv-x="458" 
d="M53 814q0 29 19.5 48.5t47.5 19.5q29 0 49 -19.5t20 -48.5t-20 -48.5t-49 -19.5q-28 0 -47.5 19.5t-19.5 48.5zM276 814q0 29 20 48.5t49 19.5q28 0 47.5 -19.5t19.5 -48.5t-19.5 -48.5t-47.5 -19.5q-29 0 -49 19.5t-20 48.5zM342 8h100v-8h-430v8h101v684h-101v8h430v-8
h-100v-684z" />
    <glyph glyph-name="Odieresis" unicode="&#xd6;" horiz-adv-x="754" 
d="M204 814q0 29 19.5 48.5t47.5 19.5q29 0 49 -19.5t20 -48.5t-20 -48.5t-49 -19.5q-28 0 -47.5 19.5t-19.5 48.5zM427 814q0 29 20 48.5t49 19.5q28 0 47.5 -19.5t19.5 -48.5t-19.5 -48.5t-47.5 -19.5q-29 0 -49 19.5t-20 48.5zM630 652q27 -21 49.5 -53.5t39 -72
t25.5 -84.5t9 -92t-9 -92t-25.5 -84.5t-39 -72t-49.5 -53.5q-23 -18 -46 -29t-50.5 -17t-60 -8t-72.5 -2h-41q-39 0 -71 2t-59 8t-50.5 17t-45.5 29q-27 21 -49.5 53.5t-39 72t-25.5 84.5t-9 92t9 92t25.5 84.5t39 72t49.5 53.5q22 18 45.5 29t50.5 17t59 8t71 2h44
q39 0 71 -2t59 -8t50 -17t46 -29zM505 378q0 35 -2 81t-9 90.5t-20 82t-35 54.5q-11 8 -17.5 11t-17.5 3h-44q-11 0 -17.5 -3t-17.5 -11q-22 -17 -35.5 -54.5t-20.5 -82t-9 -90.5t-2 -81v-56q0 -35 2 -81t9 -90.5t20.5 -82t35.5 -54.5q11 -8 17.5 -11t17.5 -3h44
q11 0 17.5 3t17.5 11q22 17 35 54.5t20 82t9 90.5t2 81v28v28z" />
    <glyph glyph-name="Udieresis" unicode="&#xdc;" horiz-adv-x="741" 
d="M633 644q0 20 -14 34t-34 14h-52v8h208v-8h-52q-20 0 -34 -14t-14 -34v-472q-2 -20 -7 -40t-15 -37q-24 -41 -64 -64t-85 -30.5t-90 -7.5t-89 6.5t-86 24.5q-21 10 -39.5 23t-32.5 32q-33 42 -33 103v510h-100v8h392v-8h-63v-505q0 -32 6.5 -58t20.5 -42q14 -17 36 -32.5
t44 -19.5q16 -4 36 -4q13 0 25.5 2t25.5 4q21 4 40.5 18.5t36.5 31.5q17 16 24 41t9 45v471zM204 814q0 29 19.5 48.5t47.5 19.5q29 0 49 -19.5t20 -48.5t-20 -48.5t-49 -19.5q-28 0 -47.5 19.5t-19.5 48.5zM427 814q0 29 20 48.5t49 19.5q28 0 47.5 -19.5t19.5 -48.5
t-19.5 -48.5t-47.5 -19.5q-29 0 -49 19.5t-20 48.5z" />
    <glyph glyph-name="endash" unicode="&#x2013;" 
 />
    <glyph glyph-name="fi" unicode="&#xfb01;" horiz-adv-x="683" 
d="M367 551q-13 0 -36 2.5t-45 11.5t-38.5 26.5t-16.5 47.5q0 15 4 24.5t4 21.5q0 6 -2.5 9.5t-12.5 3.5h-5q-20 0 -29 -12.5t-9 -31.5q0 -30 15 -53.5t39 -40.5t53.5 -26t58.5 -9q30 0 67 1.5t74 4t69 6.5t51 9v-538h75v-8h-683v8h76v509h-76v8h76q0 61 16 97.5t42 55.5
t58.5 24.5t65.5 5.5q72 0 115.5 -39.5t43.5 -117.5h-50zM259 517v-509h145v509h-145z" />
    <glyph glyph-name="H.001" 
 />
    <glyph glyph-name="B.001" 
 />
    <glyph glyph-name="two.001" 
 />
    </font>
</defs>
</svg>
